%TF.GenerationSoftware,Altium Limited,Altium Designer,20.0.13 (296)*%
G04 Layer_Color=65535*
%FSLAX44Y44*%
%MOMM*%
%TF.FileFunction,Legend,Top*%
%TF.Part,Single*%
G01*
G75*
%TA.AperFunction,NonConductor*%
%ADD28C,0.2000*%
%ADD29C,0.2540*%
%ADD30C,0.1500*%
%ADD31C,0.1000*%
G36*
X420728Y1073891D02*
X420798Y1073863D01*
X420883Y1073792D01*
X420897Y1073778D01*
X420939Y1073722D01*
X420982Y1073637D01*
X420996Y1073552D01*
Y1073538D01*
X420982Y1073482D01*
X420953Y1073397D01*
X420897Y1073313D01*
X420883Y1073299D01*
X420841Y1073256D01*
X420756Y1073214D01*
X420643Y1073200D01*
X416358D01*
X416287Y1073214D01*
X416203Y1073242D01*
X416118Y1073299D01*
X416104Y1073313D01*
X416076Y1073369D01*
X416048Y1073454D01*
X416034Y1073552D01*
Y1073567D01*
X416048Y1073609D01*
X416076Y1073665D01*
X416118Y1073764D01*
X416132Y1073792D01*
X416189Y1073834D01*
X416273Y1073877D01*
X416386Y1073905D01*
X420671D01*
X420728Y1073891D01*
D02*
G37*
G36*
X438758Y1079910D02*
X438843Y1079882D01*
X438927Y1079826D01*
X438941Y1079811D01*
X438983Y1079755D01*
X439026Y1079670D01*
X439040Y1079572D01*
X439026Y1079473D01*
X436545Y1070310D01*
Y1070296D01*
X436530Y1070268D01*
X436502Y1070211D01*
X436474Y1070155D01*
X436432Y1070099D01*
X436361Y1070042D01*
X436291Y1070014D01*
X436206Y1070000D01*
X436164D01*
X436122Y1070014D01*
X436065Y1070042D01*
X436009Y1070070D01*
X435953Y1070127D01*
X435910Y1070211D01*
X435868Y1070310D01*
X433387Y1079473D01*
X433373Y1079586D01*
Y1079614D01*
X433387Y1079656D01*
X433415Y1079741D01*
X433471Y1079811D01*
X433486Y1079826D01*
X433542Y1079868D01*
X433627Y1079910D01*
X433725Y1079924D01*
X433782D01*
X433838Y1079896D01*
X433894Y1079868D01*
X433909Y1079854D01*
X433951Y1079826D01*
X434007Y1079755D01*
X434064Y1079656D01*
X436206Y1071762D01*
X438349Y1079656D01*
Y1079670D01*
X438363Y1079713D01*
X438391Y1079769D01*
X438448Y1079840D01*
X438462Y1079854D01*
X438504Y1079868D01*
X438575Y1079896D01*
X438673Y1079924D01*
X438702D01*
X438758Y1079910D01*
D02*
G37*
G36*
X431695D02*
X431766Y1079882D01*
X431850Y1079811D01*
X431864Y1079797D01*
X431921Y1079741D01*
X431963Y1079656D01*
X431977Y1079572D01*
Y1079558D01*
X431963Y1079501D01*
X431935Y1079417D01*
X431879Y1079332D01*
X431864Y1079318D01*
X431808Y1079276D01*
X431724Y1079233D01*
X431611Y1079219D01*
X428425D01*
Y1075653D01*
X429933D01*
X429990Y1075639D01*
X430159Y1075625D01*
X430370Y1075568D01*
X430596Y1075498D01*
X430849Y1075385D01*
X431103Y1075230D01*
X431230Y1075131D01*
X431343Y1075018D01*
X431357D01*
X431371Y1074990D01*
X431441Y1074906D01*
X431540Y1074779D01*
X431667Y1074596D01*
X431780Y1074384D01*
X431879Y1074130D01*
X431949Y1073834D01*
X431977Y1073679D01*
Y1073524D01*
Y1072114D01*
Y1072100D01*
Y1072072D01*
Y1072030D01*
X431963Y1071974D01*
X431949Y1071804D01*
X431893Y1071607D01*
X431822Y1071367D01*
X431709Y1071114D01*
X431554Y1070860D01*
X431456Y1070733D01*
X431343Y1070620D01*
X431315Y1070592D01*
X431230Y1070522D01*
X431103Y1070423D01*
X430920Y1070310D01*
X430709Y1070197D01*
X430455Y1070099D01*
X430159Y1070028D01*
X430004Y1070014D01*
X429849Y1070000D01*
X428044D01*
X427974Y1070014D01*
X427889Y1070042D01*
X427804Y1070099D01*
X427790Y1070113D01*
X427762Y1070169D01*
X427734Y1070254D01*
X427720Y1070352D01*
Y1070367D01*
X427734Y1070409D01*
X427762Y1070465D01*
X427804Y1070564D01*
X427819Y1070592D01*
X427875Y1070634D01*
X427960Y1070677D01*
X428072Y1070705D01*
X429947D01*
X430060Y1070733D01*
X430201Y1070761D01*
X430356Y1070804D01*
X430525Y1070874D01*
X430694Y1070973D01*
X430849Y1071114D01*
X430864Y1071128D01*
X430920Y1071184D01*
X430990Y1071269D01*
X431061Y1071396D01*
X431146Y1071537D01*
X431202Y1071706D01*
X431258Y1071903D01*
X431272Y1072114D01*
Y1073538D01*
Y1073567D01*
Y1073637D01*
X431244Y1073750D01*
X431216Y1073877D01*
X431174Y1074032D01*
X431089Y1074201D01*
X430990Y1074370D01*
X430849Y1074525D01*
X430835Y1074539D01*
X430779Y1074596D01*
X430694Y1074666D01*
X430568Y1074737D01*
X430426Y1074821D01*
X430257Y1074878D01*
X430060Y1074934D01*
X429849Y1074948D01*
X428016D01*
X427960Y1074962D01*
X427903Y1074990D01*
X427833Y1075033D01*
X427776Y1075103D01*
X427734Y1075188D01*
X427720Y1075301D01*
Y1079558D01*
Y1079572D01*
Y1079614D01*
X427734Y1079670D01*
X427762Y1079741D01*
X427804Y1079811D01*
X427875Y1079868D01*
X427960Y1079910D01*
X428072Y1079924D01*
X431639D01*
X431695Y1079910D01*
D02*
G37*
G36*
X423984D02*
X424139Y1079896D01*
X424351Y1079854D01*
X424590Y1079769D01*
X424844Y1079656D01*
X425098Y1079516D01*
X425225Y1079417D01*
X425337Y1079304D01*
X425352D01*
X425366Y1079276D01*
X425436Y1079191D01*
X425535Y1079064D01*
X425648Y1078881D01*
X425760Y1078670D01*
X425859Y1078402D01*
X425930Y1078120D01*
X425958Y1077965D01*
Y1077796D01*
Y1077077D01*
Y1076851D01*
Y1076710D01*
X425901Y1076569D01*
Y1076555D01*
Y1076541D01*
X425887Y1076499D01*
X425873Y1076442D01*
X425831Y1076315D01*
X425760Y1076160D01*
X425746Y1076146D01*
X425718Y1076090D01*
X425676Y1076019D01*
X425620Y1075921D01*
X425535Y1075808D01*
X425422Y1075695D01*
X425309Y1075554D01*
X425168Y1075427D01*
X425197Y1075413D01*
X425253Y1075385D01*
X425337Y1075329D01*
X425450Y1075244D01*
X425577Y1075131D01*
X425704Y1075004D01*
X425845Y1074835D01*
X425972Y1074652D01*
X425986Y1074624D01*
X426028Y1074567D01*
X426085Y1074455D01*
X426141Y1074314D01*
X426197Y1074145D01*
X426254Y1073961D01*
X426296Y1073750D01*
X426310Y1073538D01*
Y1072114D01*
Y1072100D01*
Y1072072D01*
Y1072030D01*
X426296Y1071974D01*
X426282Y1071804D01*
X426226Y1071593D01*
X426155Y1071353D01*
X426042Y1071100D01*
X425887Y1070846D01*
X425789Y1070719D01*
X425676Y1070606D01*
X425648Y1070578D01*
X425563Y1070508D01*
X425436Y1070409D01*
X425253Y1070310D01*
X425042Y1070197D01*
X424788Y1070099D01*
X424492Y1070028D01*
X424337Y1070014D01*
X424182Y1070000D01*
X422377D01*
X422307Y1070014D01*
X422222Y1070042D01*
X422137Y1070099D01*
X422123Y1070113D01*
X422095Y1070169D01*
X422067Y1070254D01*
X422053Y1070352D01*
Y1070367D01*
X422067Y1070409D01*
X422095Y1070465D01*
X422137Y1070564D01*
X422152Y1070592D01*
X422208Y1070634D01*
X422293Y1070677D01*
X422405Y1070705D01*
X424280D01*
X424393Y1070733D01*
X424534Y1070761D01*
X424689Y1070804D01*
X424858Y1070874D01*
X425027Y1070973D01*
X425182Y1071114D01*
X425197Y1071128D01*
X425253Y1071184D01*
X425323Y1071269D01*
X425394Y1071396D01*
X425479Y1071537D01*
X425535Y1071706D01*
X425591Y1071903D01*
X425605Y1072114D01*
Y1073538D01*
Y1073567D01*
Y1073637D01*
X425591Y1073750D01*
X425549Y1073891D01*
X425507Y1074046D01*
X425436Y1074215D01*
X425337Y1074384D01*
X425197Y1074539D01*
X425182Y1074553D01*
X425126Y1074610D01*
X425042Y1074680D01*
X424915Y1074751D01*
X424774Y1074835D01*
X424590Y1074892D01*
X424393Y1074948D01*
X424182Y1074962D01*
X423801D01*
X423731Y1074976D01*
X423646Y1075004D01*
X423561Y1075061D01*
X423547Y1075075D01*
X423519Y1075131D01*
X423491Y1075216D01*
X423477Y1075315D01*
Y1075329D01*
X423491Y1075371D01*
X423519Y1075427D01*
X423561Y1075526D01*
X423575Y1075554D01*
X423632Y1075596D01*
X423716Y1075639D01*
X423829Y1075667D01*
X423928D01*
X424041Y1075695D01*
X424182Y1075723D01*
X424337Y1075766D01*
X424506Y1075836D01*
X424675Y1075935D01*
X424830Y1076076D01*
X424844Y1076090D01*
X424901Y1076146D01*
X424971Y1076231D01*
X425042Y1076358D01*
X425126Y1076499D01*
X425182Y1076668D01*
X425239Y1076865D01*
X425253Y1077077D01*
Y1077796D01*
Y1077824D01*
Y1077894D01*
X425225Y1078007D01*
X425197Y1078148D01*
X425154Y1078303D01*
X425070Y1078472D01*
X424971Y1078642D01*
X424830Y1078796D01*
X424816Y1078811D01*
X424760Y1078867D01*
X424675Y1078938D01*
X424548Y1079008D01*
X424407Y1079093D01*
X424238Y1079149D01*
X424041Y1079205D01*
X423829Y1079219D01*
X422377D01*
X422307Y1079233D01*
X422222Y1079262D01*
X422137Y1079318D01*
X422123Y1079332D01*
X422095Y1079389D01*
X422067Y1079473D01*
X422053Y1079572D01*
Y1079586D01*
X422067Y1079628D01*
X422095Y1079685D01*
X422137Y1079783D01*
X422152Y1079811D01*
X422208Y1079854D01*
X422293Y1079896D01*
X422405Y1079924D01*
X423914D01*
X423984Y1079910D01*
D02*
G37*
G36*
X414708D02*
X414793Y1079882D01*
X414878Y1079826D01*
X414892Y1079811D01*
X414934Y1079769D01*
X414962Y1079699D01*
X414976Y1079600D01*
X414962Y1079487D01*
X412819Y1070268D01*
Y1070254D01*
X412805Y1070226D01*
X412763Y1070169D01*
X412692Y1070070D01*
X412481Y1070000D01*
X412453D01*
X412397Y1070014D01*
X412326Y1070042D01*
X412227Y1070085D01*
X412213Y1070099D01*
X412171Y1070155D01*
X412129Y1070226D01*
X412114Y1070338D01*
X412129Y1070423D01*
X414173Y1079219D01*
X410705D01*
Y1078515D01*
Y1078486D01*
X410691Y1078416D01*
X410663Y1078331D01*
X410606Y1078247D01*
X410592Y1078233D01*
X410536Y1078204D01*
X410451Y1078176D01*
X410352Y1078162D01*
X410338D01*
X410296Y1078176D01*
X410211Y1078204D01*
X410099Y1078247D01*
X410085Y1078261D01*
X410056Y1078317D01*
X410014Y1078402D01*
X410000Y1078515D01*
Y1079558D01*
Y1079572D01*
Y1079614D01*
X410014Y1079670D01*
X410042Y1079741D01*
X410085Y1079811D01*
X410155Y1079868D01*
X410240Y1079910D01*
X410352Y1079924D01*
X414638D01*
X414708Y1079910D01*
D02*
G37*
G36*
X428411Y949938D02*
X428524Y949924D01*
X428665Y949896D01*
X428806Y949868D01*
X428975Y949826D01*
X428989D01*
X429060Y949797D01*
X429145Y949769D01*
X429257Y949727D01*
X429384Y949685D01*
X429511Y949614D01*
X429793Y949459D01*
X429807D01*
X429821Y949431D01*
X429849Y949403D01*
X429878Y949360D01*
X429892Y949346D01*
X429906Y949318D01*
X429934Y949248D01*
X429962Y949163D01*
Y949135D01*
X429948Y949079D01*
X429906Y948994D01*
X429835Y948909D01*
X429821Y948895D01*
X429765Y948853D01*
X429680Y948811D01*
X429596Y948796D01*
X429398Y948853D01*
X429370Y948867D01*
X429300Y948909D01*
X429187Y948980D01*
X429032Y949050D01*
X428848Y949121D01*
X428637Y949191D01*
X428411Y949233D01*
X428158Y949248D01*
X427016D01*
X426903Y949219D01*
X426762Y949191D01*
X426593Y949149D01*
X426424Y949064D01*
X426255Y948966D01*
X426100Y948825D01*
X426086Y948811D01*
X426043Y948754D01*
X425973Y948656D01*
X425902Y948543D01*
X425832Y948402D01*
X425761Y948219D01*
X425719Y948035D01*
X425705Y947824D01*
X425719Y947542D01*
X425747Y947401D01*
X425803Y947274D01*
Y947260D01*
X425818Y947246D01*
X425846Y947204D01*
X425874Y947147D01*
X425973Y947006D01*
X426043Y946908D01*
X426128Y946809D01*
X429286Y943651D01*
X429300Y943637D01*
X429342Y943595D01*
X429398Y943538D01*
X429455Y943454D01*
X429539Y943341D01*
X429610Y943228D01*
X429680Y943087D01*
X429751Y942946D01*
X429807Y942791D01*
X429878Y942523D01*
X429920Y942354D01*
Y942143D01*
Y942129D01*
Y942101D01*
Y942058D01*
X429906Y942002D01*
X429892Y941847D01*
X429849Y941649D01*
X429779Y941410D01*
X429666Y941170D01*
X429525Y940916D01*
X429328Y940677D01*
X429300Y940648D01*
X429215Y940578D01*
X429088Y940465D01*
X428905Y940352D01*
X428693Y940240D01*
X428426Y940127D01*
X428130Y940056D01*
X427960Y940042D01*
X427791Y940028D01*
X426678D01*
X426607Y940042D01*
X426537D01*
X426438Y940056D01*
X426226Y940085D01*
X425973Y940155D01*
X425705Y940240D01*
X425423Y940352D01*
X425155Y940522D01*
X425028Y940648D01*
X425000Y940804D01*
Y940818D01*
X425014Y940874D01*
X425042Y940959D01*
X425099Y941043D01*
X425113Y941057D01*
X425169Y941114D01*
X425240Y941156D01*
X425324Y941170D01*
X425522Y941100D01*
X425550Y941086D01*
X425620Y941043D01*
X425733Y940987D01*
X425888Y940916D01*
X426071Y940846D01*
X426283Y940789D01*
X426508Y940747D01*
X426748Y940733D01*
X427805D01*
X427876Y940747D01*
X427989Y940761D01*
X428115Y940789D01*
X428270Y940832D01*
X428440Y940916D01*
X428609Y941015D01*
X428778Y941156D01*
X428792Y941170D01*
X428848Y941226D01*
X428919Y941325D01*
X429003Y941438D01*
X429074Y941593D01*
X429145Y941762D01*
X429201Y941945D01*
X429215Y942157D01*
X429187Y942396D01*
Y942411D01*
X429173Y942439D01*
X429145Y942509D01*
Y942523D01*
X429130Y942552D01*
X429102Y942650D01*
Y942664D01*
X429088Y942692D01*
X429074Y942735D01*
X429032Y942805D01*
X428947Y942960D01*
X428877Y943059D01*
X428792Y943158D01*
X425620Y946316D01*
X425606Y946330D01*
X425578Y946358D01*
X425536Y946414D01*
X425465Y946499D01*
X425395Y946597D01*
X425324Y946724D01*
X425225Y946865D01*
X425141Y947020D01*
Y947034D01*
X425113Y947091D01*
X425099Y947161D01*
X425070Y947260D01*
X425042Y947387D01*
X425028Y947514D01*
X425000Y947824D01*
Y947838D01*
Y947866D01*
Y947908D01*
X425014Y947965D01*
X425028Y948120D01*
X425070Y948331D01*
X425141Y948557D01*
X425240Y948796D01*
X425381Y949050D01*
X425578Y949290D01*
X425592Y949304D01*
X425606Y949318D01*
X425691Y949389D01*
X425818Y949501D01*
X426001Y949628D01*
X426226Y949741D01*
X426494Y949854D01*
X426790Y949924D01*
X426959Y949952D01*
X428313D01*
X428411Y949938D01*
D02*
G37*
G36*
X439351Y947105D02*
X439464Y947091D01*
X439590Y947048D01*
X439731Y947006D01*
X439886Y946936D01*
X440027Y946837D01*
X440042Y946823D01*
X440084Y946795D01*
X440154Y946724D01*
X440239Y946654D01*
X440323Y946541D01*
X440408Y946428D01*
X440493Y946287D01*
X440563Y946132D01*
X440577Y946005D01*
Y945977D01*
X440563Y945921D01*
X440535Y945850D01*
X440464Y945752D01*
X440450Y945738D01*
X440394Y945709D01*
X440309Y945681D01*
X440211Y945667D01*
X440182D01*
X440098Y945695D01*
X440056Y945723D01*
X439999Y945766D01*
X439943Y945822D01*
X439886Y945907D01*
Y945921D01*
X439872Y945949D01*
X439830Y946033D01*
X439731Y946160D01*
X439604Y946273D01*
X439590D01*
X439576Y946301D01*
X439534Y946316D01*
X439478Y946344D01*
X439337Y946386D01*
X439168Y946414D01*
X437758D01*
Y940381D01*
Y940352D01*
X437744Y940282D01*
X437715Y940197D01*
X437659Y940113D01*
X437645Y940099D01*
X437589Y940070D01*
X437504Y940042D01*
X437405Y940028D01*
X437391D01*
X437349Y940042D01*
X437264Y940070D01*
X437152Y940113D01*
X437137Y940127D01*
X437109Y940183D01*
X437067Y940268D01*
X437053Y940381D01*
Y946752D01*
Y946767D01*
Y946809D01*
X437067Y946865D01*
X437095Y946936D01*
X437137Y947006D01*
X437208Y947063D01*
X437293Y947105D01*
X437405Y947119D01*
X439266D01*
X439351Y947105D01*
D02*
G37*
G36*
X467968Y949938D02*
X468038Y949910D01*
X468123Y949840D01*
X468137Y949826D01*
X468193Y949769D01*
X468236Y949685D01*
X468250Y949600D01*
Y949586D01*
X468236Y949530D01*
X468207Y949445D01*
X468151Y949360D01*
X468137Y949346D01*
X468080Y949304D01*
X467996Y949262D01*
X467883Y949248D01*
X464697D01*
Y945681D01*
X466205D01*
X466262Y945667D01*
X466431Y945653D01*
X466642Y945596D01*
X466868Y945526D01*
X467122Y945413D01*
X467376Y945258D01*
X467502Y945160D01*
X467615Y945047D01*
X467629D01*
X467643Y945018D01*
X467714Y944934D01*
X467813Y944807D01*
X467939Y944624D01*
X468052Y944412D01*
X468151Y944159D01*
X468221Y943863D01*
X468250Y943708D01*
Y943552D01*
Y942143D01*
Y942129D01*
Y942101D01*
Y942058D01*
X468236Y942002D01*
X468221Y941833D01*
X468165Y941635D01*
X468094Y941396D01*
X467982Y941142D01*
X467827Y940888D01*
X467728Y940761D01*
X467615Y940648D01*
X467587Y940620D01*
X467502Y940550D01*
X467376Y940451D01*
X467192Y940338D01*
X466981Y940226D01*
X466727Y940127D01*
X466431Y940056D01*
X466276Y940042D01*
X466121Y940028D01*
X464316D01*
X464246Y940042D01*
X464161Y940070D01*
X464077Y940127D01*
X464063Y940141D01*
X464035Y940197D01*
X464006Y940282D01*
X463992Y940381D01*
Y940395D01*
X464006Y940437D01*
X464035Y940493D01*
X464077Y940592D01*
X464091Y940620D01*
X464147Y940663D01*
X464232Y940705D01*
X464345Y940733D01*
X466220D01*
X466332Y940761D01*
X466473Y940789D01*
X466628Y940832D01*
X466798Y940902D01*
X466967Y941001D01*
X467122Y941142D01*
X467136Y941156D01*
X467192Y941212D01*
X467263Y941297D01*
X467333Y941424D01*
X467418Y941565D01*
X467474Y941734D01*
X467531Y941931D01*
X467545Y942143D01*
Y943567D01*
Y943595D01*
Y943665D01*
X467517Y943778D01*
X467488Y943905D01*
X467446Y944060D01*
X467361Y944229D01*
X467263Y944398D01*
X467122Y944553D01*
X467108Y944567D01*
X467051Y944624D01*
X466967Y944694D01*
X466840Y944765D01*
X466699Y944849D01*
X466530Y944906D01*
X466332Y944962D01*
X466121Y944976D01*
X464288D01*
X464232Y944990D01*
X464176Y945018D01*
X464105Y945061D01*
X464049Y945131D01*
X464006Y945216D01*
X463992Y945329D01*
Y949586D01*
Y949600D01*
Y949642D01*
X464006Y949699D01*
X464035Y949769D01*
X464077Y949840D01*
X464147Y949896D01*
X464232Y949938D01*
X464345Y949952D01*
X467911D01*
X467968Y949938D01*
D02*
G37*
G36*
X460144D02*
X460228D01*
X460341Y949910D01*
X460581Y949868D01*
X460849Y949783D01*
X461159Y949656D01*
X461314Y949572D01*
X461469Y949487D01*
X461624Y949374D01*
X461779Y949248D01*
X461793Y949233D01*
X461821Y949219D01*
X461864Y949177D01*
X461906Y949121D01*
X461976Y949050D01*
X462047Y948966D01*
X462202Y948754D01*
X462357Y948501D01*
X462498Y948204D01*
X462540Y948049D01*
X462583Y947880D01*
X462611Y947697D01*
X462625Y947514D01*
Y947500D01*
Y947457D01*
Y947387D01*
X462611Y947302D01*
X462597Y947189D01*
X462583Y947077D01*
X462512Y946823D01*
Y946809D01*
X462498Y946767D01*
X462470Y946696D01*
X462427Y946611D01*
X462371Y946499D01*
X462315Y946372D01*
X462230Y946217D01*
X462146Y946062D01*
X458621Y940733D01*
X462230D01*
X462287Y940719D01*
X462357Y940691D01*
X462442Y940620D01*
X462456Y940606D01*
X462498Y940550D01*
X462540Y940465D01*
X462554Y940381D01*
Y940367D01*
X462540Y940310D01*
X462512Y940226D01*
X462456Y940141D01*
X462442Y940127D01*
X462399Y940085D01*
X462315Y940042D01*
X462202Y940028D01*
X457931D01*
X457874Y940042D01*
X457804Y940070D01*
X457705Y940141D01*
X457691Y940155D01*
X457663Y940211D01*
X457620Y940296D01*
X457606Y940409D01*
Y940423D01*
X457620Y940465D01*
X457635Y940522D01*
X457663Y940578D01*
X461539Y946456D01*
X461694Y946738D01*
X461793Y946992D01*
Y947006D01*
X461807Y947034D01*
X461821Y947091D01*
X461850Y947147D01*
X461878Y947316D01*
X461892Y947514D01*
Y947528D01*
Y947542D01*
X461878Y947641D01*
X461864Y947767D01*
X461821Y947937D01*
X461751Y948120D01*
X461638Y948331D01*
X461497Y948529D01*
X461300Y948726D01*
X461286Y948740D01*
X461258Y948768D01*
X461201Y948811D01*
X461131Y948853D01*
X461046Y948909D01*
X460933Y948980D01*
X460694Y949093D01*
X460680D01*
X460637Y949121D01*
X460567Y949135D01*
X460482Y949163D01*
X460383Y949191D01*
X460257Y949205D01*
X460003Y949233D01*
X459918D01*
X459820Y949219D01*
X459707Y949205D01*
X459566Y949163D01*
X459411Y949121D01*
X459242Y949050D01*
X459086Y948952D01*
X459072Y948938D01*
X459016Y948895D01*
X458946Y948839D01*
X458847Y948740D01*
X458748Y948613D01*
X458635Y948444D01*
X458523Y948247D01*
X458410Y948021D01*
X458396Y948007D01*
X458382Y947965D01*
X458339Y947908D01*
X458297Y947852D01*
X458283D01*
X458241Y947824D01*
X458170Y947810D01*
X458086Y947796D01*
X458058D01*
X458001Y947810D01*
X457916Y947838D01*
X457832Y947880D01*
X457818Y947894D01*
X457775Y947951D01*
X457733Y948035D01*
X457719Y948134D01*
X457747Y948261D01*
Y948275D01*
X457761Y948303D01*
X457775Y948345D01*
X457804Y948402D01*
X457874Y948557D01*
X457973Y948740D01*
X458100Y948952D01*
X458269Y949177D01*
X458452Y949374D01*
X458678Y949558D01*
X458706Y949572D01*
X458776Y949614D01*
X458889Y949685D01*
X459044Y949755D01*
X459242Y949826D01*
X459453Y949896D01*
X459707Y949938D01*
X459975Y949952D01*
X460073D01*
X460144Y949938D01*
D02*
G37*
G36*
X455915D02*
X455999Y949910D01*
X456084Y949854D01*
X456098Y949840D01*
X456140Y949783D01*
X456183Y949699D01*
X456197Y949600D01*
Y940367D01*
Y940338D01*
X456183Y940268D01*
X456154Y940183D01*
X456098Y940099D01*
X456084Y940085D01*
X456027Y940070D01*
X455943Y940042D01*
X455844Y940028D01*
X455830D01*
X455788Y940042D01*
X455703Y940056D01*
X455591Y940099D01*
X455576Y940113D01*
X455548Y940169D01*
X455506Y940254D01*
X455492Y940367D01*
Y948740D01*
X453955Y947218D01*
X453941Y947204D01*
X453885Y947161D01*
X453814Y947119D01*
X453716Y947105D01*
X453687D01*
X453631Y947119D01*
X453546Y947147D01*
X453462Y947218D01*
X453448Y947232D01*
X453419Y947288D01*
X453377Y947373D01*
X453363Y947471D01*
Y947486D01*
X453377Y947528D01*
X453405Y947598D01*
X453462Y947711D01*
X455591Y949854D01*
X455605Y949868D01*
X455661Y949910D01*
X455731Y949938D01*
X455830Y949952D01*
X455858D01*
X455915Y949938D01*
D02*
G37*
G36*
X450727Y947105D02*
X450868Y947063D01*
X451023Y947020D01*
X451192Y946950D01*
X451361Y946851D01*
X451516Y946710D01*
X451530Y946696D01*
X451587Y946640D01*
X451657Y946555D01*
X451728Y946428D01*
X451813Y946287D01*
X451869Y946104D01*
X451925Y945907D01*
X451939Y945695D01*
Y940381D01*
Y940352D01*
X451925Y940282D01*
X451897Y940197D01*
X451841Y940113D01*
X451827Y940099D01*
X451770Y940070D01*
X451686Y940042D01*
X451587Y940028D01*
X451573D01*
X451530Y940042D01*
X451446Y940070D01*
X451333Y940113D01*
X451319Y940127D01*
X451291Y940183D01*
X451249Y940268D01*
X451235Y940381D01*
Y945695D01*
Y945709D01*
Y945752D01*
X451220Y945794D01*
X451206Y945864D01*
X451178Y945949D01*
X451150Y946033D01*
X451093Y946118D01*
X451023Y946203D01*
X451009Y946217D01*
X450981Y946231D01*
X450938Y946273D01*
X450882Y946316D01*
X450727Y946386D01*
X450628Y946400D01*
X450516Y946414D01*
X448387D01*
Y940381D01*
Y940352D01*
X448373Y940282D01*
X448345Y940197D01*
X448288Y940113D01*
X448274Y940099D01*
X448218Y940070D01*
X448133Y940042D01*
X448035Y940028D01*
X448020D01*
X447978Y940042D01*
X447893Y940070D01*
X447781Y940113D01*
X447767Y940127D01*
X447738Y940183D01*
X447696Y940268D01*
X447682Y940381D01*
Y946752D01*
Y946767D01*
Y946809D01*
X447696Y946865D01*
X447724Y946936D01*
X447767Y947006D01*
X447837Y947063D01*
X447922Y947105D01*
X448035Y947119D01*
X450614D01*
X450727Y947105D01*
D02*
G37*
G36*
X445060Y947091D02*
X445201Y947063D01*
X445356Y947020D01*
X445525Y946936D01*
X445694Y946837D01*
X445849Y946696D01*
X445863Y946682D01*
X445920Y946626D01*
X445990Y946541D01*
X446061Y946414D01*
X446146Y946273D01*
X446202Y946104D01*
X446258Y945907D01*
X446272Y945695D01*
Y943567D01*
Y943552D01*
Y943510D01*
X446258Y943454D01*
X446230Y943397D01*
X446188Y943327D01*
X446117Y943270D01*
X446033Y943228D01*
X445906Y943214D01*
X442720D01*
Y941438D01*
Y941424D01*
Y941396D01*
X442734Y941339D01*
X442748Y941269D01*
X442804Y941100D01*
X442847Y941015D01*
X442917Y940930D01*
X442931Y940916D01*
X442960Y940902D01*
X443002Y940874D01*
X443058Y940832D01*
X443227Y940761D01*
X443312Y940747D01*
X443425Y940733D01*
X445934D01*
X445990Y940719D01*
X446061Y940691D01*
X446146Y940620D01*
X446160Y940606D01*
X446216Y940550D01*
X446258Y940465D01*
X446272Y940381D01*
Y940367D01*
X446258Y940310D01*
X446230Y940226D01*
X446174Y940141D01*
X446160Y940127D01*
X446103Y940085D01*
X446019Y940042D01*
X445906Y940028D01*
X443326D01*
X443213Y940056D01*
X443072Y940085D01*
X442917Y940127D01*
X442748Y940197D01*
X442579Y940296D01*
X442424Y940437D01*
X442410Y940451D01*
X442368Y940508D01*
X442297Y940592D01*
X442226Y940719D01*
X442142Y940860D01*
X442086Y941029D01*
X442029Y941226D01*
X442015Y941438D01*
Y945695D01*
Y945723D01*
Y945780D01*
X442043Y945892D01*
X442071Y946019D01*
X442114Y946174D01*
X442184Y946330D01*
X442283Y946499D01*
X442410Y946668D01*
X442424Y946682D01*
X442480Y946738D01*
X442565Y946809D01*
X442692Y946893D01*
X442833Y946978D01*
X443016Y947048D01*
X443213Y947105D01*
X443425Y947119D01*
X444947D01*
X445060Y947091D01*
D02*
G37*
G36*
X435319Y947105D02*
X435390Y947077D01*
X435460Y947034D01*
X435516Y946964D01*
X435559Y946879D01*
X435573Y946752D01*
Y941438D01*
Y941424D01*
Y941396D01*
X435587Y941353D01*
Y941297D01*
X435629Y941156D01*
X435700Y940987D01*
Y940973D01*
X435714Y940959D01*
X435784Y940888D01*
X435897Y940789D01*
X435967Y940747D01*
X436052Y940691D01*
X436066D01*
X436094Y940677D01*
X436179Y940620D01*
X436264Y940522D01*
X436292Y940451D01*
X436306Y940367D01*
Y940338D01*
X436292Y940282D01*
X436264Y940183D01*
X436207Y940099D01*
X436193Y940085D01*
X436151Y940056D01*
X436066Y940014D01*
X435967Y940000D01*
X435841Y940028D01*
X435812Y940042D01*
X435742Y940070D01*
X435629Y940127D01*
X435502Y940226D01*
X435488Y940240D01*
X435446Y940268D01*
X435404Y940310D01*
X435347Y940352D01*
X435291Y940423D01*
X435220Y940508D01*
X435206Y940493D01*
X435150Y940437D01*
X435051Y940352D01*
X434924Y940268D01*
X434769Y940183D01*
X434586Y940099D01*
X434389Y940042D01*
X434149Y940028D01*
X432626D01*
X432514Y940056D01*
X432373Y940085D01*
X432218Y940127D01*
X432048Y940197D01*
X431879Y940296D01*
X431724Y940437D01*
X431710Y940451D01*
X431668Y940508D01*
X431597Y940592D01*
X431527Y940719D01*
X431442Y940860D01*
X431386Y941029D01*
X431329Y941226D01*
X431315Y941438D01*
Y945695D01*
Y945723D01*
Y945780D01*
X431344Y945892D01*
X431372Y946019D01*
X431414Y946174D01*
X431485Y946330D01*
X431583Y946499D01*
X431710Y946668D01*
X431724Y946682D01*
X431781Y946738D01*
X431865Y946809D01*
X431992Y946893D01*
X432133Y946978D01*
X432316Y947048D01*
X432514Y947105D01*
X432725Y947119D01*
X435263D01*
X435319Y947105D01*
D02*
G37*
G36*
X427213Y1154229D02*
X427284Y1154201D01*
X427368Y1154145D01*
X427382Y1154130D01*
X427425Y1154074D01*
X427467Y1153989D01*
X427481Y1153877D01*
Y1152467D01*
X428919D01*
X428975Y1152453D01*
X429046Y1152425D01*
X429130Y1152354D01*
X429145Y1152340D01*
X429201Y1152284D01*
X429243Y1152199D01*
X429257Y1152115D01*
Y1152101D01*
X429243Y1152044D01*
X429215Y1151960D01*
X429159Y1151875D01*
X429145Y1151861D01*
X429088Y1151818D01*
X429003Y1151776D01*
X428891Y1151762D01*
X427481D01*
Y1150352D01*
Y1150324D01*
X427467Y1150254D01*
X427439Y1150169D01*
X427382Y1150085D01*
X427368Y1150070D01*
X427312Y1150042D01*
X427227Y1150014D01*
X427129Y1150000D01*
X427114D01*
X427072Y1150014D01*
X426988Y1150042D01*
X426875Y1150085D01*
X426861Y1150099D01*
X426833Y1150155D01*
X426790Y1150240D01*
X426776Y1150352D01*
Y1151762D01*
X425324D01*
X425254Y1151776D01*
X425169Y1151804D01*
X425085Y1151861D01*
X425070Y1151875D01*
X425042Y1151931D01*
X425014Y1152016D01*
X425000Y1152115D01*
Y1152129D01*
X425014Y1152171D01*
X425042Y1152227D01*
X425085Y1152326D01*
X425099Y1152354D01*
X425155Y1152396D01*
X425240Y1152439D01*
X425352Y1152467D01*
X426776D01*
Y1153877D01*
Y1153891D01*
X426790Y1153947D01*
X426819Y1154032D01*
X426875Y1154116D01*
X426889Y1154130D01*
X426945Y1154187D01*
X427030Y1154229D01*
X427129Y1154243D01*
X427157D01*
X427213Y1154229D01*
D02*
G37*
G36*
X822213Y1144229D02*
X822284Y1144201D01*
X822368Y1144145D01*
X822382Y1144130D01*
X822425Y1144074D01*
X822467Y1143989D01*
X822481Y1143877D01*
Y1142467D01*
X823919D01*
X823975Y1142453D01*
X824046Y1142425D01*
X824130Y1142354D01*
X824145Y1142340D01*
X824201Y1142284D01*
X824243Y1142199D01*
X824257Y1142114D01*
Y1142100D01*
X824243Y1142044D01*
X824215Y1141960D01*
X824159Y1141875D01*
X824145Y1141861D01*
X824088Y1141818D01*
X824004Y1141776D01*
X823891Y1141762D01*
X822481D01*
Y1140352D01*
Y1140324D01*
X822467Y1140254D01*
X822439Y1140169D01*
X822382Y1140085D01*
X822368Y1140070D01*
X822312Y1140042D01*
X822227Y1140014D01*
X822129Y1140000D01*
X822115D01*
X822072Y1140014D01*
X821988Y1140042D01*
X821875Y1140085D01*
X821861Y1140099D01*
X821833Y1140155D01*
X821790Y1140240D01*
X821776Y1140352D01*
Y1141762D01*
X820324D01*
X820254Y1141776D01*
X820169Y1141804D01*
X820085Y1141861D01*
X820070Y1141875D01*
X820042Y1141931D01*
X820014Y1142016D01*
X820000Y1142114D01*
Y1142129D01*
X820014Y1142171D01*
X820042Y1142227D01*
X820085Y1142326D01*
X820099Y1142354D01*
X820155Y1142396D01*
X820240Y1142439D01*
X820352Y1142467D01*
X821776D01*
Y1143877D01*
Y1143891D01*
X821790Y1143947D01*
X821818Y1144032D01*
X821875Y1144116D01*
X821889Y1144130D01*
X821945Y1144187D01*
X822030Y1144229D01*
X822129Y1144243D01*
X822157D01*
X822213Y1144229D01*
D02*
G37*
G36*
X816038Y1064910D02*
X816123Y1064882D01*
X816207Y1064826D01*
X816221Y1064811D01*
X816264Y1064755D01*
X816306Y1064670D01*
X816320Y1064572D01*
X816306Y1064473D01*
X813825Y1055310D01*
Y1055296D01*
X813811Y1055268D01*
X813782Y1055211D01*
X813754Y1055155D01*
X813712Y1055099D01*
X813642Y1055042D01*
X813571Y1055014D01*
X813486Y1055000D01*
X813444D01*
X813402Y1055014D01*
X813345Y1055042D01*
X813289Y1055070D01*
X813233Y1055127D01*
X813190Y1055211D01*
X813148Y1055310D01*
X810667Y1064473D01*
X810653Y1064586D01*
Y1064614D01*
X810667Y1064656D01*
X810695Y1064741D01*
X810752Y1064811D01*
X810766Y1064826D01*
X810822Y1064868D01*
X810907Y1064910D01*
X811005Y1064924D01*
X811062D01*
X811118Y1064896D01*
X811174Y1064868D01*
X811189Y1064854D01*
X811231Y1064826D01*
X811287Y1064755D01*
X811344Y1064656D01*
X813486Y1056762D01*
X815629Y1064656D01*
Y1064670D01*
X815643Y1064713D01*
X815671Y1064769D01*
X815728Y1064840D01*
X815742Y1064854D01*
X815784Y1064868D01*
X815855Y1064896D01*
X815953Y1064924D01*
X815982D01*
X816038Y1064910D01*
D02*
G37*
G36*
X808975D02*
X809046Y1064882D01*
X809130Y1064811D01*
X809145Y1064797D01*
X809201Y1064741D01*
X809243Y1064656D01*
X809257Y1064572D01*
Y1064558D01*
X809243Y1064501D01*
X809215Y1064417D01*
X809159Y1064332D01*
X809145Y1064318D01*
X809088Y1064276D01*
X809004Y1064233D01*
X808891Y1064219D01*
X805705D01*
Y1060653D01*
X807213D01*
X807270Y1060639D01*
X807439Y1060625D01*
X807650Y1060568D01*
X807876Y1060498D01*
X808130Y1060385D01*
X808383Y1060230D01*
X808510Y1060131D01*
X808623Y1060018D01*
X808637D01*
X808651Y1059990D01*
X808722Y1059906D01*
X808820Y1059779D01*
X808947Y1059596D01*
X809060Y1059384D01*
X809159Y1059130D01*
X809229Y1058834D01*
X809257Y1058679D01*
Y1058524D01*
Y1057114D01*
Y1057101D01*
Y1057072D01*
Y1057030D01*
X809243Y1056974D01*
X809229Y1056804D01*
X809173Y1056607D01*
X809102Y1056367D01*
X808989Y1056114D01*
X808834Y1055860D01*
X808736Y1055733D01*
X808623Y1055620D01*
X808595Y1055592D01*
X808510Y1055522D01*
X808383Y1055423D01*
X808200Y1055310D01*
X807989Y1055197D01*
X807735Y1055099D01*
X807439Y1055028D01*
X807284Y1055014D01*
X807129Y1055000D01*
X805324D01*
X805254Y1055014D01*
X805169Y1055042D01*
X805085Y1055099D01*
X805070Y1055113D01*
X805042Y1055169D01*
X805014Y1055254D01*
X805000Y1055352D01*
Y1055367D01*
X805014Y1055409D01*
X805042Y1055465D01*
X805085Y1055564D01*
X805099Y1055592D01*
X805155Y1055634D01*
X805240Y1055677D01*
X805352Y1055705D01*
X807227D01*
X807340Y1055733D01*
X807481Y1055761D01*
X807636Y1055804D01*
X807805Y1055874D01*
X807974Y1055973D01*
X808130Y1056114D01*
X808144Y1056128D01*
X808200Y1056184D01*
X808270Y1056269D01*
X808341Y1056396D01*
X808426Y1056537D01*
X808482Y1056706D01*
X808538Y1056903D01*
X808552Y1057114D01*
Y1058538D01*
Y1058567D01*
Y1058637D01*
X808524Y1058750D01*
X808496Y1058877D01*
X808454Y1059032D01*
X808369Y1059201D01*
X808270Y1059370D01*
X808130Y1059525D01*
X808115Y1059539D01*
X808059Y1059596D01*
X807974Y1059666D01*
X807848Y1059737D01*
X807707Y1059821D01*
X807538Y1059878D01*
X807340Y1059934D01*
X807129Y1059948D01*
X805296D01*
X805240Y1059962D01*
X805183Y1059990D01*
X805113Y1060033D01*
X805056Y1060103D01*
X805014Y1060188D01*
X805000Y1060301D01*
Y1064558D01*
Y1064572D01*
Y1064614D01*
X805014Y1064670D01*
X805042Y1064741D01*
X805085Y1064811D01*
X805155Y1064868D01*
X805240Y1064910D01*
X805352Y1064924D01*
X808919D01*
X808975Y1064910D01*
D02*
G37*
G36*
X799267Y1153988D02*
X799352Y1153960D01*
X799436Y1153890D01*
X799450Y1153876D01*
X799493Y1153819D01*
X799535Y1153749D01*
X799549Y1153650D01*
Y1153636D01*
Y1153594D01*
X799521Y1153537D01*
X799493Y1153467D01*
X797110Y1149026D01*
X799493Y1144586D01*
X799507Y1144572D01*
X799521Y1144543D01*
X799535Y1144473D01*
X799549Y1144402D01*
Y1144388D01*
X799535Y1144332D01*
X799493Y1144247D01*
X799422Y1144163D01*
X799408Y1144149D01*
X799352Y1144120D01*
X799267Y1144078D01*
X799168Y1144064D01*
X799140D01*
X799056Y1144092D01*
X798957Y1144149D01*
X798915Y1144191D01*
X798872Y1144247D01*
X796702Y1148279D01*
X794530Y1144247D01*
Y1144233D01*
X794516Y1144219D01*
X794460Y1144163D01*
X794361Y1144092D01*
X794305Y1144078D01*
X794234Y1144064D01*
X794206D01*
X794150Y1144078D01*
X794051Y1144106D01*
X793967Y1144163D01*
X793953Y1144177D01*
X793924Y1144233D01*
X793882Y1144304D01*
X793868Y1144402D01*
Y1144416D01*
Y1144459D01*
X793882Y1144515D01*
X793910Y1144586D01*
X796307Y1149026D01*
X793910Y1153467D01*
X793868Y1153650D01*
Y1153664D01*
X793882Y1153706D01*
X793910Y1153763D01*
X793967Y1153861D01*
X793981Y1153890D01*
X794037Y1153932D01*
X794122Y1153974D01*
X794234Y1154002D01*
X794263D01*
X794347Y1153974D01*
X794446Y1153918D01*
X794488Y1153876D01*
X794530Y1153805D01*
X796702Y1149787D01*
X798872Y1153805D01*
Y1153819D01*
X798886Y1153833D01*
X798943Y1153904D01*
X799042Y1153974D01*
X799098Y1153988D01*
X799168Y1154002D01*
X799197D01*
X799267Y1153988D01*
D02*
G37*
G36*
X809882Y1153974D02*
X809967D01*
X810079Y1153946D01*
X810319Y1153904D01*
X810587Y1153819D01*
X810897Y1153692D01*
X811052Y1153608D01*
X811207Y1153523D01*
X811362Y1153410D01*
X811517Y1153283D01*
X811532Y1153269D01*
X811560Y1153255D01*
X811602Y1153213D01*
X811644Y1153157D01*
X811715Y1153086D01*
X811785Y1153001D01*
X811940Y1152790D01*
X812095Y1152536D01*
X812236Y1152240D01*
X812279Y1152085D01*
X812321Y1151916D01*
X812349Y1151733D01*
X812363Y1151550D01*
Y1151535D01*
Y1151493D01*
Y1151423D01*
X812349Y1151338D01*
X812335Y1151225D01*
X812321Y1151113D01*
X812251Y1150859D01*
Y1150845D01*
X812236Y1150802D01*
X812208Y1150732D01*
X812166Y1150647D01*
X812110Y1150535D01*
X812053Y1150408D01*
X811969Y1150253D01*
X811884Y1150098D01*
X808360Y1144769D01*
X811969D01*
X812025Y1144755D01*
X812095Y1144727D01*
X812180Y1144656D01*
X812194Y1144642D01*
X812236Y1144586D01*
X812279Y1144501D01*
X812293Y1144416D01*
Y1144402D01*
X812279Y1144346D01*
X812251Y1144261D01*
X812194Y1144177D01*
X812180Y1144163D01*
X812138Y1144120D01*
X812053Y1144078D01*
X811940Y1144064D01*
X807669D01*
X807613Y1144078D01*
X807542Y1144106D01*
X807443Y1144177D01*
X807429Y1144191D01*
X807401Y1144247D01*
X807359Y1144332D01*
X807345Y1144445D01*
Y1144459D01*
X807359Y1144501D01*
X807373Y1144557D01*
X807401Y1144614D01*
X811278Y1150492D01*
X811433Y1150774D01*
X811532Y1151028D01*
Y1151042D01*
X811546Y1151070D01*
X811560Y1151127D01*
X811588Y1151183D01*
X811616Y1151352D01*
X811630Y1151550D01*
Y1151564D01*
Y1151578D01*
X811616Y1151676D01*
X811602Y1151803D01*
X811560Y1151972D01*
X811489Y1152156D01*
X811376Y1152367D01*
X811236Y1152564D01*
X811038Y1152762D01*
X811024Y1152776D01*
X810996Y1152804D01*
X810939Y1152846D01*
X810869Y1152889D01*
X810784Y1152945D01*
X810672Y1153016D01*
X810432Y1153128D01*
X810418D01*
X810376Y1153157D01*
X810305Y1153171D01*
X810220Y1153199D01*
X810122Y1153227D01*
X809995Y1153241D01*
X809741Y1153269D01*
X809657D01*
X809558Y1153255D01*
X809445Y1153241D01*
X809304Y1153199D01*
X809149Y1153157D01*
X808980Y1153086D01*
X808825Y1152987D01*
X808811Y1152973D01*
X808754Y1152931D01*
X808684Y1152875D01*
X808585Y1152776D01*
X808487Y1152649D01*
X808374Y1152480D01*
X808261Y1152283D01*
X808148Y1152057D01*
X808134Y1152043D01*
X808120Y1152001D01*
X808078Y1151944D01*
X808036Y1151888D01*
X808021D01*
X807979Y1151860D01*
X807909Y1151846D01*
X807824Y1151832D01*
X807796D01*
X807739Y1151846D01*
X807655Y1151874D01*
X807570Y1151916D01*
X807556Y1151930D01*
X807514Y1151986D01*
X807472Y1152071D01*
X807458Y1152170D01*
X807486Y1152297D01*
Y1152311D01*
X807500Y1152339D01*
X807514Y1152381D01*
X807542Y1152438D01*
X807613Y1152593D01*
X807711Y1152776D01*
X807838Y1152987D01*
X808007Y1153213D01*
X808191Y1153410D01*
X808416Y1153594D01*
X808444Y1153608D01*
X808515Y1153650D01*
X808627Y1153720D01*
X808783Y1153791D01*
X808980Y1153861D01*
X809191Y1153932D01*
X809445Y1153974D01*
X809713Y1153988D01*
X809812D01*
X809882Y1153974D01*
D02*
G37*
G36*
X805639D02*
X805710Y1153946D01*
X805794Y1153876D01*
X805808Y1153861D01*
X805864Y1153805D01*
X805907Y1153720D01*
X805921Y1153636D01*
Y1153622D01*
X805907Y1153565D01*
X805879Y1153481D01*
X805822Y1153396D01*
X805808Y1153382D01*
X805752Y1153340D01*
X805667Y1153298D01*
X805554Y1153283D01*
X803792D01*
Y1144402D01*
Y1144374D01*
X803778Y1144304D01*
X803750Y1144219D01*
X803694Y1144135D01*
X803680Y1144120D01*
X803623Y1144106D01*
X803539Y1144078D01*
X803440Y1144064D01*
X803426D01*
X803383Y1144078D01*
X803299Y1144092D01*
X803186Y1144135D01*
X803172Y1144149D01*
X803144Y1144205D01*
X803102Y1144290D01*
X803087Y1144402D01*
Y1153283D01*
X801283D01*
X801212Y1153298D01*
X801128Y1153326D01*
X801043Y1153382D01*
X801029Y1153396D01*
X801001Y1153453D01*
X800973Y1153537D01*
X800959Y1153636D01*
Y1153650D01*
X800973Y1153692D01*
X801001Y1153749D01*
X801043Y1153847D01*
X801058Y1153876D01*
X801114Y1153918D01*
X801198Y1153960D01*
X801311Y1153988D01*
X805583D01*
X805639Y1153974D01*
D02*
G37*
G36*
X407237Y1154955D02*
X407322Y1154927D01*
X407406Y1154856D01*
X407420Y1154842D01*
X407463Y1154786D01*
X407505Y1154715D01*
X407519Y1154617D01*
Y1154603D01*
Y1154560D01*
X407491Y1154504D01*
X407463Y1154434D01*
X405080Y1149993D01*
X407463Y1145552D01*
X407477Y1145538D01*
X407491Y1145510D01*
X407505Y1145440D01*
X407519Y1145369D01*
Y1145355D01*
X407505Y1145299D01*
X407463Y1145214D01*
X407392Y1145129D01*
X407378Y1145115D01*
X407322Y1145087D01*
X407237Y1145045D01*
X407138Y1145031D01*
X407110D01*
X407025Y1145059D01*
X406927Y1145115D01*
X406885Y1145158D01*
X406842Y1145214D01*
X404671Y1149246D01*
X402500Y1145214D01*
Y1145200D01*
X402486Y1145186D01*
X402430Y1145129D01*
X402331Y1145059D01*
X402275Y1145045D01*
X402204Y1145031D01*
X402176D01*
X402120Y1145045D01*
X402021Y1145073D01*
X401936Y1145129D01*
X401922Y1145144D01*
X401894Y1145200D01*
X401852Y1145270D01*
X401838Y1145369D01*
Y1145383D01*
Y1145425D01*
X401852Y1145482D01*
X401880Y1145552D01*
X404277Y1149993D01*
X401880Y1154434D01*
X401838Y1154617D01*
Y1154631D01*
X401852Y1154673D01*
X401880Y1154730D01*
X401936Y1154828D01*
X401951Y1154856D01*
X402007Y1154899D01*
X402092Y1154941D01*
X402204Y1154969D01*
X402233D01*
X402317Y1154941D01*
X402416Y1154885D01*
X402458Y1154842D01*
X402500Y1154772D01*
X404671Y1150754D01*
X406842Y1154772D01*
Y1154786D01*
X406856Y1154800D01*
X406913Y1154871D01*
X407011Y1154941D01*
X407068Y1154955D01*
X407138Y1154969D01*
X407166D01*
X407237Y1154955D01*
D02*
G37*
G36*
X417880Y1154941D02*
X417965Y1154913D01*
X418049Y1154856D01*
X418064Y1154842D01*
X418106Y1154786D01*
X418148Y1154701D01*
X418162Y1154603D01*
Y1145369D01*
Y1145341D01*
X418148Y1145270D01*
X418120Y1145186D01*
X418064Y1145101D01*
X418049Y1145087D01*
X417993Y1145073D01*
X417908Y1145045D01*
X417810Y1145031D01*
X417796D01*
X417753Y1145045D01*
X417669Y1145059D01*
X417556Y1145101D01*
X417542Y1145115D01*
X417514Y1145172D01*
X417471Y1145256D01*
X417457Y1145369D01*
Y1153743D01*
X415921Y1152220D01*
X415907Y1152206D01*
X415850Y1152164D01*
X415780Y1152122D01*
X415681Y1152107D01*
X415653D01*
X415597Y1152122D01*
X415512Y1152150D01*
X415427Y1152220D01*
X415413Y1152234D01*
X415385Y1152291D01*
X415343Y1152375D01*
X415329Y1152474D01*
Y1152488D01*
X415343Y1152530D01*
X415371Y1152601D01*
X415427Y1152714D01*
X417556Y1154856D01*
X417570Y1154871D01*
X417626Y1154913D01*
X417697Y1154941D01*
X417796Y1154955D01*
X417824D01*
X417880Y1154941D01*
D02*
G37*
G36*
X413609D02*
X413679Y1154913D01*
X413764Y1154842D01*
X413778Y1154828D01*
X413834Y1154772D01*
X413877Y1154687D01*
X413891Y1154603D01*
Y1154589D01*
X413877Y1154532D01*
X413848Y1154448D01*
X413792Y1154363D01*
X413778Y1154349D01*
X413722Y1154307D01*
X413637Y1154264D01*
X413524Y1154250D01*
X411762D01*
Y1145369D01*
Y1145341D01*
X411748Y1145270D01*
X411720Y1145186D01*
X411663Y1145101D01*
X411649Y1145087D01*
X411593Y1145073D01*
X411508Y1145045D01*
X411410Y1145031D01*
X411396D01*
X411353Y1145045D01*
X411269Y1145059D01*
X411156Y1145101D01*
X411142Y1145115D01*
X411114Y1145172D01*
X411071Y1145256D01*
X411057Y1145369D01*
Y1154250D01*
X409253D01*
X409182Y1154264D01*
X409098Y1154293D01*
X409013Y1154349D01*
X408999Y1154363D01*
X408971Y1154419D01*
X408943Y1154504D01*
X408929Y1154603D01*
Y1154617D01*
X408943Y1154659D01*
X408971Y1154715D01*
X409013Y1154814D01*
X409027Y1154842D01*
X409084Y1154885D01*
X409168Y1154927D01*
X409281Y1154955D01*
X413552D01*
X413609Y1154941D01*
D02*
G37*
G36*
X786511Y1054948D02*
X786596Y1054920D01*
X786680Y1054864D01*
X786694Y1054849D01*
X786737Y1054793D01*
X786779Y1054708D01*
X786793Y1054610D01*
X786779Y1054511D01*
X784298Y1045348D01*
Y1045334D01*
X784284Y1045306D01*
X784256Y1045249D01*
X784227Y1045193D01*
X784185Y1045136D01*
X784115Y1045080D01*
X784044Y1045052D01*
X783960Y1045038D01*
X783917D01*
X783875Y1045052D01*
X783819Y1045080D01*
X783762Y1045108D01*
X783706Y1045165D01*
X783663Y1045249D01*
X783621Y1045348D01*
X781140Y1054511D01*
X781126Y1054624D01*
Y1054652D01*
X781140Y1054694D01*
X781168Y1054779D01*
X781225Y1054849D01*
X781239Y1054864D01*
X781295Y1054906D01*
X781380Y1054948D01*
X781478Y1054962D01*
X781535D01*
X781591Y1054934D01*
X781648Y1054906D01*
X781662Y1054892D01*
X781704Y1054864D01*
X781760Y1054793D01*
X781817Y1054694D01*
X783960Y1046800D01*
X786102Y1054694D01*
Y1054708D01*
X786116Y1054751D01*
X786144Y1054807D01*
X786201Y1054878D01*
X786215Y1054892D01*
X786257Y1054906D01*
X786328Y1054934D01*
X786426Y1054962D01*
X786455D01*
X786511Y1054948D01*
D02*
G37*
G36*
X796548D02*
X796703Y1054934D01*
X796915Y1054892D01*
X797154Y1054807D01*
X797408Y1054694D01*
X797662Y1054553D01*
X797789Y1054455D01*
X797901Y1054342D01*
X797915D01*
X797930Y1054314D01*
X798000Y1054229D01*
X798099Y1054102D01*
X798212Y1053919D01*
X798324Y1053708D01*
X798423Y1053440D01*
X798493Y1053158D01*
X798522Y1053003D01*
Y1052833D01*
Y1052115D01*
Y1051889D01*
Y1051748D01*
X798465Y1051607D01*
Y1051593D01*
Y1051579D01*
X798451Y1051537D01*
X798437Y1051480D01*
X798395Y1051353D01*
X798324Y1051198D01*
X798310Y1051184D01*
X798282Y1051128D01*
X798240Y1051057D01*
X798183Y1050959D01*
X798099Y1050846D01*
X797986Y1050733D01*
X797873Y1050592D01*
X797732Y1050465D01*
X797760Y1050451D01*
X797817Y1050423D01*
X797901Y1050367D01*
X798014Y1050282D01*
X798141Y1050169D01*
X798268Y1050042D01*
X798409Y1049873D01*
X798536Y1049690D01*
X798550Y1049662D01*
X798592Y1049605D01*
X798649Y1049492D01*
X798705Y1049352D01*
X798761Y1049182D01*
X798818Y1048999D01*
X798860Y1048788D01*
X798874Y1048576D01*
Y1047152D01*
Y1047138D01*
Y1047110D01*
Y1047068D01*
X798860Y1047011D01*
X798846Y1046842D01*
X798790Y1046631D01*
X798719Y1046391D01*
X798606Y1046137D01*
X798451Y1045884D01*
X798353Y1045757D01*
X798240Y1045644D01*
X798212Y1045616D01*
X798127Y1045545D01*
X798000Y1045447D01*
X797817Y1045348D01*
X797605Y1045235D01*
X797352Y1045136D01*
X797056Y1045066D01*
X796900Y1045052D01*
X796745Y1045038D01*
X794941D01*
X794871Y1045052D01*
X794786Y1045080D01*
X794701Y1045136D01*
X794687Y1045151D01*
X794659Y1045207D01*
X794631Y1045292D01*
X794617Y1045390D01*
Y1045404D01*
X794631Y1045447D01*
X794659Y1045503D01*
X794701Y1045602D01*
X794715Y1045630D01*
X794772Y1045672D01*
X794856Y1045714D01*
X794969Y1045743D01*
X796844D01*
X796957Y1045771D01*
X797098Y1045799D01*
X797253Y1045841D01*
X797422Y1045912D01*
X797591Y1046011D01*
X797746Y1046152D01*
X797760Y1046166D01*
X797817Y1046222D01*
X797887Y1046307D01*
X797958Y1046433D01*
X798042Y1046574D01*
X798099Y1046744D01*
X798155Y1046941D01*
X798169Y1047152D01*
Y1048576D01*
Y1048604D01*
Y1048675D01*
X798155Y1048788D01*
X798113Y1048929D01*
X798071Y1049084D01*
X798000Y1049253D01*
X797901Y1049422D01*
X797760Y1049577D01*
X797746Y1049591D01*
X797690Y1049648D01*
X797605Y1049718D01*
X797478Y1049789D01*
X797337Y1049873D01*
X797154Y1049930D01*
X796957Y1049986D01*
X796745Y1050000D01*
X796365D01*
X796294Y1050014D01*
X796210Y1050042D01*
X796125Y1050099D01*
X796111Y1050113D01*
X796083Y1050169D01*
X796055Y1050254D01*
X796041Y1050352D01*
Y1050367D01*
X796055Y1050409D01*
X796083Y1050465D01*
X796125Y1050564D01*
X796139Y1050592D01*
X796196Y1050634D01*
X796280Y1050677D01*
X796393Y1050705D01*
X796492D01*
X796605Y1050733D01*
X796745Y1050761D01*
X796900Y1050804D01*
X797070Y1050874D01*
X797239Y1050973D01*
X797394Y1051114D01*
X797408Y1051128D01*
X797464Y1051184D01*
X797535Y1051269D01*
X797605Y1051396D01*
X797690Y1051537D01*
X797746Y1051706D01*
X797803Y1051903D01*
X797817Y1052115D01*
Y1052833D01*
Y1052862D01*
Y1052932D01*
X797789Y1053045D01*
X797760Y1053186D01*
X797718Y1053341D01*
X797634Y1053510D01*
X797535Y1053679D01*
X797394Y1053834D01*
X797380Y1053848D01*
X797323Y1053905D01*
X797239Y1053975D01*
X797112Y1054046D01*
X796971Y1054130D01*
X796802Y1054187D01*
X796605Y1054243D01*
X796393Y1054257D01*
X794941D01*
X794871Y1054271D01*
X794786Y1054300D01*
X794701Y1054356D01*
X794687Y1054370D01*
X794659Y1054426D01*
X794631Y1054511D01*
X794617Y1054610D01*
Y1054624D01*
X794631Y1054666D01*
X794659Y1054723D01*
X794701Y1054821D01*
X794715Y1054849D01*
X794772Y1054892D01*
X794856Y1054934D01*
X794969Y1054962D01*
X796478D01*
X796548Y1054948D01*
D02*
G37*
G36*
X791205D02*
X791375Y1054934D01*
X791586Y1054892D01*
X791812Y1054807D01*
X792065Y1054694D01*
X792333Y1054553D01*
X792446Y1054455D01*
X792573Y1054342D01*
X792587D01*
X792601Y1054314D01*
X792671Y1054229D01*
X792770Y1054102D01*
X792897Y1053919D01*
X793010Y1053708D01*
X793108Y1053440D01*
X793179Y1053158D01*
X793207Y1053003D01*
Y1052833D01*
Y1047152D01*
Y1047138D01*
Y1047110D01*
Y1047068D01*
X793193Y1047011D01*
X793179Y1046842D01*
X793122Y1046645D01*
X793052Y1046405D01*
X792939Y1046166D01*
X792784Y1045912D01*
X792685Y1045785D01*
X792573Y1045658D01*
X792544Y1045630D01*
X792460Y1045559D01*
X792333Y1045461D01*
X792150Y1045348D01*
X791938Y1045235D01*
X791671Y1045136D01*
X791389Y1045066D01*
X791234Y1045052D01*
X791064Y1045038D01*
X788527D01*
X788471Y1045052D01*
X788414Y1045080D01*
X788344Y1045122D01*
X788287Y1045193D01*
X788245Y1045277D01*
X788231Y1045390D01*
Y1054596D01*
Y1054610D01*
Y1054652D01*
X788245Y1054708D01*
X788273Y1054779D01*
X788315Y1054849D01*
X788386Y1054906D01*
X788471Y1054948D01*
X788583Y1054962D01*
X791149D01*
X791205Y1054948D01*
D02*
G37*
G36*
X512877Y1157736D02*
X512962Y1157708D01*
X513046Y1157652D01*
X513060Y1157637D01*
X513103Y1157581D01*
X513145Y1157496D01*
X513159Y1157398D01*
X513145Y1157299D01*
X510664Y1148136D01*
Y1148122D01*
X510650Y1148094D01*
X510621Y1148037D01*
X510593Y1147981D01*
X510551Y1147925D01*
X510481Y1147868D01*
X510410Y1147840D01*
X510326Y1147826D01*
X510283D01*
X510241Y1147840D01*
X510185Y1147868D01*
X510128Y1147896D01*
X510072Y1147953D01*
X510029Y1148037D01*
X509987Y1148136D01*
X507506Y1157299D01*
X507492Y1157412D01*
Y1157440D01*
X507506Y1157482D01*
X507534Y1157567D01*
X507591Y1157637D01*
X507605Y1157652D01*
X507661Y1157694D01*
X507746Y1157736D01*
X507844Y1157750D01*
X507901D01*
X507957Y1157722D01*
X508014Y1157694D01*
X508028Y1157680D01*
X508070Y1157652D01*
X508126Y1157581D01*
X508183Y1157482D01*
X510326Y1149588D01*
X512468Y1157482D01*
Y1157496D01*
X512482Y1157539D01*
X512510Y1157595D01*
X512567Y1157666D01*
X512581Y1157680D01*
X512623Y1157694D01*
X512694Y1157722D01*
X512793Y1157750D01*
X512821D01*
X512877Y1157736D01*
D02*
G37*
G36*
X523520D02*
X523605D01*
X523718Y1157708D01*
X523957Y1157666D01*
X524225Y1157581D01*
X524535Y1157454D01*
X524690Y1157370D01*
X524845Y1157285D01*
X525000Y1157172D01*
X525155Y1157045D01*
X525170Y1157031D01*
X525198Y1157017D01*
X525240Y1156975D01*
X525282Y1156919D01*
X525353Y1156848D01*
X525423Y1156764D01*
X525578Y1156552D01*
X525733Y1156298D01*
X525874Y1156002D01*
X525917Y1155847D01*
X525959Y1155678D01*
X525987Y1155495D01*
X526001Y1155312D01*
Y1155297D01*
Y1155255D01*
Y1155185D01*
X525987Y1155100D01*
X525973Y1154987D01*
X525959Y1154874D01*
X525889Y1154621D01*
Y1154607D01*
X525874Y1154564D01*
X525846Y1154494D01*
X525804Y1154409D01*
X525748Y1154296D01*
X525691Y1154170D01*
X525607Y1154015D01*
X525522Y1153859D01*
X521998Y1148531D01*
X525607D01*
X525663Y1148517D01*
X525733Y1148489D01*
X525818Y1148418D01*
X525832Y1148404D01*
X525874Y1148348D01*
X525917Y1148263D01*
X525931Y1148178D01*
Y1148164D01*
X525917Y1148108D01*
X525889Y1148023D01*
X525832Y1147939D01*
X525818Y1147925D01*
X525776Y1147882D01*
X525691Y1147840D01*
X525578Y1147826D01*
X521307D01*
X521251Y1147840D01*
X521180Y1147868D01*
X521082Y1147939D01*
X521067Y1147953D01*
X521039Y1148009D01*
X520997Y1148094D01*
X520983Y1148207D01*
Y1148221D01*
X520997Y1148263D01*
X521011Y1148319D01*
X521039Y1148376D01*
X524916Y1154254D01*
X525071Y1154536D01*
X525170Y1154790D01*
Y1154804D01*
X525184Y1154832D01*
X525198Y1154889D01*
X525226Y1154945D01*
X525254Y1155114D01*
X525268Y1155312D01*
Y1155326D01*
Y1155340D01*
X525254Y1155438D01*
X525240Y1155565D01*
X525198Y1155734D01*
X525127Y1155918D01*
X525015Y1156129D01*
X524874Y1156327D01*
X524676Y1156524D01*
X524662Y1156538D01*
X524634Y1156566D01*
X524578Y1156608D01*
X524507Y1156651D01*
X524422Y1156707D01*
X524310Y1156778D01*
X524070Y1156890D01*
X524056D01*
X524014Y1156919D01*
X523943Y1156933D01*
X523859Y1156961D01*
X523760Y1156989D01*
X523633Y1157003D01*
X523379Y1157031D01*
X523295D01*
X523196Y1157017D01*
X523083Y1157003D01*
X522942Y1156961D01*
X522787Y1156919D01*
X522618Y1156848D01*
X522463Y1156749D01*
X522449Y1156735D01*
X522393Y1156693D01*
X522322Y1156637D01*
X522223Y1156538D01*
X522125Y1156411D01*
X522012Y1156242D01*
X521899Y1156045D01*
X521786Y1155819D01*
X521772Y1155805D01*
X521758Y1155763D01*
X521716Y1155706D01*
X521674Y1155650D01*
X521660D01*
X521617Y1155622D01*
X521547Y1155608D01*
X521462Y1155593D01*
X521434D01*
X521377Y1155608D01*
X521293Y1155636D01*
X521208Y1155678D01*
X521194Y1155692D01*
X521152Y1155749D01*
X521110Y1155833D01*
X521096Y1155932D01*
X521124Y1156059D01*
Y1156073D01*
X521138Y1156101D01*
X521152Y1156143D01*
X521180Y1156200D01*
X521251Y1156355D01*
X521349Y1156538D01*
X521476Y1156749D01*
X521645Y1156975D01*
X521829Y1157172D01*
X522054Y1157356D01*
X522082Y1157370D01*
X522153Y1157412D01*
X522266Y1157482D01*
X522421Y1157553D01*
X522618Y1157623D01*
X522830Y1157694D01*
X523083Y1157736D01*
X523351Y1157750D01*
X523450D01*
X523520Y1157736D01*
D02*
G37*
G36*
X517571D02*
X517741Y1157722D01*
X517952Y1157680D01*
X518177Y1157595D01*
X518431Y1157482D01*
X518699Y1157342D01*
X518812Y1157243D01*
X518939Y1157130D01*
X518953D01*
X518967Y1157102D01*
X519037Y1157017D01*
X519136Y1156890D01*
X519263Y1156707D01*
X519376Y1156496D01*
X519474Y1156228D01*
X519545Y1155946D01*
X519573Y1155791D01*
Y1155622D01*
Y1149941D01*
Y1149927D01*
Y1149898D01*
Y1149856D01*
X519559Y1149800D01*
X519545Y1149630D01*
X519488Y1149433D01*
X519418Y1149193D01*
X519305Y1148954D01*
X519150Y1148700D01*
X519052Y1148573D01*
X518939Y1148446D01*
X518911Y1148418D01*
X518826Y1148348D01*
X518699Y1148249D01*
X518516Y1148136D01*
X518304Y1148023D01*
X518037Y1147925D01*
X517755Y1147854D01*
X517599Y1147840D01*
X517430Y1147826D01*
X514893D01*
X514837Y1147840D01*
X514780Y1147868D01*
X514710Y1147911D01*
X514653Y1147981D01*
X514611Y1148066D01*
X514597Y1148178D01*
Y1157384D01*
Y1157398D01*
Y1157440D01*
X514611Y1157496D01*
X514639Y1157567D01*
X514682Y1157637D01*
X514752Y1157694D01*
X514837Y1157736D01*
X514949Y1157750D01*
X517515D01*
X517571Y1157736D01*
D02*
G37*
G36*
X631297Y1187962D02*
X631382Y1187934D01*
X631466Y1187878D01*
X631480Y1187863D01*
X631523Y1187807D01*
X631565Y1187722D01*
X631579Y1187624D01*
X631565Y1187525D01*
X629084Y1178362D01*
Y1178348D01*
X629070Y1178320D01*
X629041Y1178263D01*
X629013Y1178207D01*
X628971Y1178151D01*
X628901Y1178094D01*
X628830Y1178066D01*
X628745Y1178052D01*
X628703D01*
X628661Y1178066D01*
X628605Y1178094D01*
X628548Y1178122D01*
X628492Y1178179D01*
X628450Y1178263D01*
X628407Y1178362D01*
X625926Y1187525D01*
X625912Y1187638D01*
Y1187666D01*
X625926Y1187708D01*
X625954Y1187793D01*
X626011Y1187863D01*
X626025Y1187878D01*
X626081Y1187920D01*
X626166Y1187962D01*
X626264Y1187976D01*
X626321D01*
X626377Y1187948D01*
X626434Y1187920D01*
X626448Y1187906D01*
X626490Y1187878D01*
X626546Y1187807D01*
X626603Y1187708D01*
X628745Y1179814D01*
X630888Y1187708D01*
Y1187722D01*
X630902Y1187765D01*
X630930Y1187821D01*
X630987Y1187892D01*
X631001Y1187906D01*
X631043Y1187920D01*
X631114Y1187948D01*
X631213Y1187976D01*
X631241D01*
X631297Y1187962D01*
D02*
G37*
G36*
X641969D02*
X642053Y1187934D01*
X642138Y1187878D01*
X642152Y1187863D01*
X642194Y1187807D01*
X642236Y1187722D01*
X642250Y1187624D01*
Y1178390D01*
Y1178362D01*
X642236Y1178292D01*
X642208Y1178207D01*
X642152Y1178122D01*
X642138Y1178108D01*
X642081Y1178094D01*
X641997Y1178066D01*
X641898Y1178052D01*
X641884D01*
X641842Y1178066D01*
X641757Y1178080D01*
X641644Y1178122D01*
X641630Y1178137D01*
X641602Y1178193D01*
X641560Y1178278D01*
X641546Y1178390D01*
Y1186764D01*
X640009Y1185241D01*
X639995Y1185227D01*
X639939Y1185185D01*
X639868Y1185143D01*
X639769Y1185129D01*
X639741D01*
X639685Y1185143D01*
X639600Y1185171D01*
X639516Y1185241D01*
X639501Y1185256D01*
X639473Y1185312D01*
X639431Y1185396D01*
X639417Y1185495D01*
Y1185509D01*
X639431Y1185552D01*
X639459Y1185622D01*
X639516Y1185735D01*
X641644Y1187878D01*
X641658Y1187892D01*
X641715Y1187934D01*
X641785Y1187962D01*
X641884Y1187976D01*
X641912D01*
X641969Y1187962D01*
D02*
G37*
G36*
X635991D02*
X636161Y1187948D01*
X636372Y1187906D01*
X636598Y1187821D01*
X636851Y1187708D01*
X637119Y1187568D01*
X637232Y1187469D01*
X637359Y1187356D01*
X637373D01*
X637387Y1187328D01*
X637457Y1187243D01*
X637556Y1187116D01*
X637683Y1186933D01*
X637796Y1186722D01*
X637895Y1186454D01*
X637965Y1186172D01*
X637993Y1186017D01*
Y1185848D01*
Y1180167D01*
Y1180153D01*
Y1180124D01*
Y1180082D01*
X637979Y1180026D01*
X637965Y1179856D01*
X637909Y1179659D01*
X637838Y1179419D01*
X637725Y1179180D01*
X637570Y1178926D01*
X637472Y1178799D01*
X637359Y1178672D01*
X637331Y1178644D01*
X637246Y1178574D01*
X637119Y1178475D01*
X636936Y1178362D01*
X636724Y1178249D01*
X636457Y1178151D01*
X636175Y1178080D01*
X636020Y1178066D01*
X635850Y1178052D01*
X633313D01*
X633256Y1178066D01*
X633200Y1178094D01*
X633130Y1178137D01*
X633073Y1178207D01*
X633031Y1178292D01*
X633017Y1178404D01*
Y1187610D01*
Y1187624D01*
Y1187666D01*
X633031Y1187722D01*
X633059Y1187793D01*
X633102Y1187863D01*
X633172Y1187920D01*
X633256Y1187962D01*
X633369Y1187976D01*
X635935D01*
X635991Y1187962D01*
D02*
G37*
G36*
X764335Y1134948D02*
X764419Y1134920D01*
X764504Y1134864D01*
X764518Y1134849D01*
X764560Y1134793D01*
X764603Y1134708D01*
X764617Y1134610D01*
Y1125376D01*
Y1125348D01*
X764603Y1125277D01*
X764575Y1125193D01*
X764518Y1125108D01*
X764504Y1125094D01*
X764448Y1125080D01*
X764363Y1125052D01*
X764264Y1125038D01*
X764250D01*
X764208Y1125052D01*
X764123Y1125066D01*
X764011Y1125108D01*
X763997Y1125122D01*
X763968Y1125179D01*
X763926Y1125263D01*
X763912Y1125376D01*
Y1133750D01*
X762375Y1132227D01*
X762361Y1132213D01*
X762305Y1132171D01*
X762234Y1132129D01*
X762136Y1132115D01*
X762107D01*
X762051Y1132129D01*
X761966Y1132157D01*
X761882Y1132227D01*
X761868Y1132241D01*
X761840Y1132298D01*
X761797Y1132382D01*
X761783Y1132481D01*
Y1132495D01*
X761797Y1132538D01*
X761826Y1132608D01*
X761882Y1132721D01*
X764011Y1134864D01*
X764025Y1134878D01*
X764081Y1134920D01*
X764152Y1134948D01*
X764250Y1134962D01*
X764278D01*
X764335Y1134948D01*
D02*
G37*
G36*
X758358D02*
X758527Y1134934D01*
X758738Y1134878D01*
X758964Y1134807D01*
X759218Y1134694D01*
X759485Y1134539D01*
X759598Y1134441D01*
X759725Y1134328D01*
X759739D01*
X759753Y1134300D01*
X759824Y1134215D01*
X759922Y1134088D01*
X760049Y1133905D01*
X760162Y1133693D01*
X760261Y1133440D01*
X760331Y1133144D01*
X760359Y1132989D01*
Y1132833D01*
Y1131410D01*
Y1131396D01*
Y1131367D01*
Y1131325D01*
X760345Y1131269D01*
X760331Y1131100D01*
X760275Y1130902D01*
X760204Y1130663D01*
X760092Y1130409D01*
X759937Y1130155D01*
X759838Y1130028D01*
X759725Y1129915D01*
X759697Y1129887D01*
X759612Y1129817D01*
X759485Y1129718D01*
X759302Y1129605D01*
X759091Y1129492D01*
X758823Y1129394D01*
X758541Y1129323D01*
X758386Y1129309D01*
X758217Y1129295D01*
X758132D01*
X760303Y1125559D01*
X760317Y1125545D01*
X760331Y1125503D01*
X760345Y1125447D01*
X760359Y1125376D01*
Y1125348D01*
X760345Y1125292D01*
X760303Y1125221D01*
X760233Y1125122D01*
X760219Y1125108D01*
X760162Y1125080D01*
X760078Y1125052D01*
X759979Y1125038D01*
X759922D01*
X759824Y1125066D01*
X759810Y1125080D01*
X759781Y1125094D01*
X759739Y1125151D01*
X759697Y1125207D01*
X757300Y1129295D01*
X756088D01*
Y1125376D01*
Y1125348D01*
X756074Y1125277D01*
X756046Y1125193D01*
X755989Y1125108D01*
X755975Y1125094D01*
X755919Y1125080D01*
X755834Y1125052D01*
X755736Y1125038D01*
X755722D01*
X755679Y1125052D01*
X755595Y1125066D01*
X755482Y1125108D01*
X755468Y1125122D01*
X755440Y1125179D01*
X755397Y1125263D01*
X755383Y1125376D01*
Y1134596D01*
Y1134610D01*
Y1134652D01*
X755397Y1134708D01*
X755425Y1134779D01*
X755468Y1134849D01*
X755538Y1134906D01*
X755623Y1134948D01*
X755736Y1134962D01*
X758301D01*
X758358Y1134948D01*
D02*
G37*
G36*
X617528Y1074948D02*
X617612Y1074920D01*
X617697Y1074864D01*
X617711Y1074849D01*
X617753Y1074793D01*
X617796Y1074708D01*
X617810Y1074610D01*
Y1065376D01*
Y1065348D01*
X617796Y1065277D01*
X617767Y1065193D01*
X617711Y1065108D01*
X617697Y1065094D01*
X617641Y1065080D01*
X617556Y1065052D01*
X617457Y1065038D01*
X617443D01*
X617401Y1065052D01*
X617316Y1065066D01*
X617204Y1065108D01*
X617189Y1065122D01*
X617161Y1065179D01*
X617119Y1065263D01*
X617105Y1065376D01*
Y1073750D01*
X615568Y1072227D01*
X615554Y1072213D01*
X615498Y1072171D01*
X615427Y1072129D01*
X615329Y1072114D01*
X615300D01*
X615244Y1072129D01*
X615159Y1072157D01*
X615075Y1072227D01*
X615061Y1072241D01*
X615033Y1072298D01*
X614990Y1072382D01*
X614976Y1072481D01*
Y1072495D01*
X614990Y1072538D01*
X615019Y1072608D01*
X615075Y1072721D01*
X617204Y1074864D01*
X617218Y1074878D01*
X617274Y1074920D01*
X617345Y1074948D01*
X617443Y1074962D01*
X617471D01*
X617528Y1074948D01*
D02*
G37*
G36*
X611551D02*
X611720Y1074934D01*
X611931Y1074892D01*
X612157Y1074807D01*
X612411Y1074694D01*
X612678Y1074553D01*
X612791Y1074455D01*
X612918Y1074342D01*
X612932D01*
X612946Y1074314D01*
X613017Y1074229D01*
X613115Y1074102D01*
X613242Y1073919D01*
X613355Y1073708D01*
X613454Y1073440D01*
X613524Y1073158D01*
X613552Y1073003D01*
Y1072833D01*
Y1067152D01*
Y1067138D01*
Y1067110D01*
Y1067068D01*
X613538Y1067011D01*
X613524Y1066842D01*
X613468Y1066645D01*
X613397Y1066405D01*
X613285Y1066166D01*
X613130Y1065912D01*
X613031Y1065785D01*
X612918Y1065658D01*
X612890Y1065630D01*
X612805Y1065559D01*
X612678Y1065461D01*
X612495Y1065348D01*
X612284Y1065235D01*
X612016Y1065136D01*
X611734Y1065066D01*
X611579Y1065052D01*
X611410Y1065038D01*
X608872D01*
X608816Y1065052D01*
X608759Y1065080D01*
X608689Y1065122D01*
X608633Y1065193D01*
X608590Y1065277D01*
X608576Y1065390D01*
Y1074596D01*
Y1074610D01*
Y1074652D01*
X608590Y1074708D01*
X608619Y1074779D01*
X608661Y1074849D01*
X608731Y1074906D01*
X608816Y1074948D01*
X608929Y1074962D01*
X611494D01*
X611551Y1074948D01*
D02*
G37*
G36*
X605165D02*
X605334Y1074934D01*
X605545Y1074892D01*
X605771Y1074807D01*
X606025Y1074694D01*
X606292Y1074553D01*
X606405Y1074455D01*
X606532Y1074342D01*
X606546D01*
X606560Y1074314D01*
X606631Y1074229D01*
X606730Y1074102D01*
X606856Y1073919D01*
X606969Y1073708D01*
X607068Y1073440D01*
X607138Y1073158D01*
X607166Y1073003D01*
Y1072833D01*
Y1067152D01*
Y1067138D01*
Y1067110D01*
Y1067068D01*
X607152Y1067011D01*
X607138Y1066842D01*
X607082Y1066645D01*
X607011Y1066405D01*
X606899Y1066166D01*
X606744Y1065912D01*
X606645Y1065785D01*
X606532Y1065658D01*
X606504Y1065630D01*
X606419Y1065559D01*
X606292Y1065461D01*
X606109Y1065348D01*
X605898Y1065235D01*
X605630Y1065136D01*
X605348Y1065066D01*
X605193Y1065052D01*
X605024Y1065038D01*
X602486D01*
X602430Y1065052D01*
X602374Y1065080D01*
X602303Y1065122D01*
X602247Y1065193D01*
X602204Y1065277D01*
X602190Y1065390D01*
Y1074596D01*
Y1074610D01*
Y1074652D01*
X602204Y1074708D01*
X602233Y1074779D01*
X602275Y1074849D01*
X602345Y1074906D01*
X602430Y1074948D01*
X602543Y1074962D01*
X605108D01*
X605165Y1074948D01*
D02*
G37*
G36*
X729870Y1136400D02*
X730025Y1136386D01*
X730237Y1136344D01*
X730477Y1136259D01*
X730730Y1136146D01*
X730984Y1136005D01*
X731111Y1135907D01*
X731224Y1135794D01*
X731238D01*
X731252Y1135766D01*
X731322Y1135681D01*
X731421Y1135554D01*
X731534Y1135371D01*
X731646Y1135160D01*
X731745Y1134892D01*
X731816Y1134610D01*
X731844Y1134455D01*
Y1134286D01*
Y1133567D01*
Y1133341D01*
Y1133200D01*
X731787Y1133059D01*
Y1133045D01*
Y1133031D01*
X731773Y1132989D01*
X731759Y1132932D01*
X731717Y1132805D01*
X731646Y1132650D01*
X731632Y1132636D01*
X731604Y1132580D01*
X731562Y1132509D01*
X731506Y1132411D01*
X731421Y1132298D01*
X731308Y1132185D01*
X731195Y1132044D01*
X731054Y1131917D01*
X731083Y1131903D01*
X731139Y1131875D01*
X731224Y1131819D01*
X731336Y1131734D01*
X731463Y1131621D01*
X731590Y1131494D01*
X731731Y1131325D01*
X731858Y1131142D01*
X731872Y1131114D01*
X731914Y1131057D01*
X731971Y1130945D01*
X732027Y1130804D01*
X732084Y1130635D01*
X732140Y1130451D01*
X732182Y1130240D01*
X732196Y1130028D01*
Y1128605D01*
Y1128590D01*
Y1128562D01*
Y1128520D01*
X732182Y1128464D01*
X732168Y1128294D01*
X732112Y1128083D01*
X732041Y1127843D01*
X731928Y1127590D01*
X731773Y1127336D01*
X731675Y1127209D01*
X731562Y1127096D01*
X731534Y1127068D01*
X731449Y1126998D01*
X731322Y1126899D01*
X731139Y1126800D01*
X730928Y1126687D01*
X730674Y1126589D01*
X730378Y1126518D01*
X730223Y1126504D01*
X730068Y1126490D01*
X728263D01*
X728193Y1126504D01*
X728108Y1126532D01*
X728024Y1126589D01*
X728009Y1126603D01*
X727981Y1126659D01*
X727953Y1126744D01*
X727939Y1126842D01*
Y1126857D01*
X727953Y1126899D01*
X727981Y1126955D01*
X728024Y1127054D01*
X728038Y1127082D01*
X728094Y1127124D01*
X728179Y1127167D01*
X728291Y1127195D01*
X730166D01*
X730279Y1127223D01*
X730420Y1127251D01*
X730575Y1127293D01*
X730744Y1127364D01*
X730913Y1127463D01*
X731068Y1127604D01*
X731083Y1127618D01*
X731139Y1127674D01*
X731209Y1127759D01*
X731280Y1127886D01*
X731365Y1128027D01*
X731421Y1128196D01*
X731477Y1128393D01*
X731491Y1128605D01*
Y1130028D01*
Y1130057D01*
Y1130127D01*
X731477Y1130240D01*
X731435Y1130381D01*
X731393Y1130536D01*
X731322Y1130705D01*
X731224Y1130874D01*
X731083Y1131029D01*
X731068Y1131043D01*
X731012Y1131100D01*
X730928Y1131170D01*
X730801Y1131241D01*
X730660Y1131325D01*
X730477Y1131382D01*
X730279Y1131438D01*
X730068Y1131452D01*
X729687D01*
X729616Y1131466D01*
X729532Y1131494D01*
X729447Y1131551D01*
X729433Y1131565D01*
X729405Y1131621D01*
X729377Y1131706D01*
X729363Y1131805D01*
Y1131819D01*
X729377Y1131861D01*
X729405Y1131917D01*
X729447Y1132016D01*
X729462Y1132044D01*
X729518Y1132086D01*
X729603Y1132129D01*
X729715Y1132157D01*
X729814D01*
X729927Y1132185D01*
X730068Y1132213D01*
X730223Y1132256D01*
X730392Y1132326D01*
X730561Y1132425D01*
X730716Y1132566D01*
X730730Y1132580D01*
X730787Y1132636D01*
X730857Y1132721D01*
X730928Y1132848D01*
X731012Y1132989D01*
X731068Y1133158D01*
X731125Y1133355D01*
X731139Y1133567D01*
Y1134286D01*
Y1134314D01*
Y1134384D01*
X731111Y1134497D01*
X731083Y1134638D01*
X731040Y1134793D01*
X730956Y1134962D01*
X730857Y1135132D01*
X730716Y1135286D01*
X730702Y1135301D01*
X730646Y1135357D01*
X730561Y1135427D01*
X730434Y1135498D01*
X730293Y1135583D01*
X730124Y1135639D01*
X729927Y1135695D01*
X729715Y1135709D01*
X728263D01*
X728193Y1135723D01*
X728108Y1135752D01*
X728024Y1135808D01*
X728009Y1135822D01*
X727981Y1135879D01*
X727953Y1135963D01*
X727939Y1136062D01*
Y1136076D01*
X727953Y1136118D01*
X727981Y1136175D01*
X728024Y1136273D01*
X728038Y1136301D01*
X728094Y1136344D01*
X728179Y1136386D01*
X728291Y1136414D01*
X729800D01*
X729870Y1136400D01*
D02*
G37*
G36*
X726247D02*
X726318Y1136372D01*
X726402Y1136301D01*
X726416Y1136287D01*
X726473Y1136231D01*
X726515Y1136146D01*
X726529Y1136062D01*
Y1136048D01*
X726515Y1135991D01*
X726487Y1135907D01*
X726431Y1135822D01*
X726416Y1135808D01*
X726360Y1135766D01*
X726276Y1135723D01*
X726163Y1135709D01*
X724302D01*
X724189Y1135695D01*
X724048Y1135653D01*
X723893Y1135611D01*
X723724Y1135540D01*
X723555Y1135442D01*
X723386Y1135301D01*
X723372Y1135286D01*
X723329Y1135230D01*
X723259Y1135146D01*
X723188Y1135019D01*
X723104Y1134878D01*
X723047Y1134695D01*
X722991Y1134497D01*
X722977Y1134286D01*
Y1128605D01*
Y1128576D01*
Y1128506D01*
X723005Y1128393D01*
X723033Y1128266D01*
X723075Y1128111D01*
X723146Y1127942D01*
X723245Y1127773D01*
X723386Y1127604D01*
X723400Y1127590D01*
X723456Y1127547D01*
X723555Y1127477D01*
X723668Y1127406D01*
X723823Y1127322D01*
X723992Y1127265D01*
X724189Y1127209D01*
X724401Y1127195D01*
X726191D01*
X726247Y1127181D01*
X726318Y1127153D01*
X726402Y1127082D01*
X726416Y1127068D01*
X726473Y1127012D01*
X726515Y1126927D01*
X726529Y1126842D01*
Y1126828D01*
X726515Y1126772D01*
X726487Y1126687D01*
X726431Y1126603D01*
X726416Y1126589D01*
X726360Y1126546D01*
X726276Y1126504D01*
X726163Y1126490D01*
X724316D01*
X724260Y1126504D01*
X724105Y1126518D01*
X723907Y1126575D01*
X723668Y1126645D01*
X723428Y1126758D01*
X723174Y1126913D01*
X723047Y1126998D01*
X722921Y1127110D01*
Y1127124D01*
X722892Y1127139D01*
X722822Y1127223D01*
X722709Y1127350D01*
X722596Y1127533D01*
X722484Y1127745D01*
X722371Y1127998D01*
X722300Y1128294D01*
X722286Y1128449D01*
X722272Y1128605D01*
Y1134286D01*
Y1134300D01*
Y1134328D01*
Y1134370D01*
X722286Y1134427D01*
X722300Y1134582D01*
X722343Y1134793D01*
X722427Y1135019D01*
X722526Y1135272D01*
X722681Y1135526D01*
X722765Y1135639D01*
X722878Y1135766D01*
X722892Y1135780D01*
X722906Y1135794D01*
X722991Y1135864D01*
X723118Y1135977D01*
X723301Y1136090D01*
X723527Y1136203D01*
X723780Y1136316D01*
X724076Y1136386D01*
X724231Y1136414D01*
X726191D01*
X726247Y1136400D01*
D02*
G37*
G36*
X497862Y1159548D02*
X497946D01*
X498059Y1159520D01*
X498299Y1159477D01*
X498567Y1159393D01*
X498877Y1159266D01*
X499032Y1159182D01*
X499187Y1159097D01*
X499342Y1158984D01*
X499497Y1158857D01*
X499511Y1158843D01*
X499539Y1158829D01*
X499581Y1158787D01*
X499624Y1158730D01*
X499694Y1158660D01*
X499765Y1158575D01*
X499920Y1158364D01*
X500075Y1158110D01*
X500216Y1157814D01*
X500258Y1157659D01*
X500300Y1157490D01*
X500329Y1157307D01*
X500343Y1157123D01*
Y1157109D01*
Y1157067D01*
Y1156997D01*
X500329Y1156912D01*
X500315Y1156799D01*
X500300Y1156686D01*
X500230Y1156433D01*
Y1156419D01*
X500216Y1156376D01*
X500188Y1156306D01*
X500145Y1156221D01*
X500089Y1156108D01*
X500033Y1155982D01*
X499948Y1155826D01*
X499864Y1155671D01*
X496339Y1150343D01*
X499948D01*
X500004Y1150329D01*
X500075Y1150300D01*
X500159Y1150230D01*
X500174Y1150216D01*
X500216Y1150159D01*
X500258Y1150075D01*
X500272Y1149990D01*
Y1149976D01*
X500258Y1149920D01*
X500230Y1149835D01*
X500174Y1149751D01*
X500159Y1149736D01*
X500117Y1149694D01*
X500033Y1149652D01*
X499920Y1149638D01*
X495648D01*
X495592Y1149652D01*
X495522Y1149680D01*
X495423Y1149751D01*
X495409Y1149765D01*
X495381Y1149821D01*
X495338Y1149906D01*
X495324Y1150018D01*
Y1150033D01*
X495338Y1150075D01*
X495352Y1150131D01*
X495381Y1150188D01*
X499257Y1156066D01*
X499412Y1156348D01*
X499511Y1156602D01*
Y1156616D01*
X499525Y1156644D01*
X499539Y1156700D01*
X499567Y1156757D01*
X499596Y1156926D01*
X499610Y1157123D01*
Y1157137D01*
Y1157151D01*
X499596Y1157250D01*
X499581Y1157377D01*
X499539Y1157546D01*
X499469Y1157729D01*
X499356Y1157941D01*
X499215Y1158138D01*
X499018Y1158336D01*
X499003Y1158350D01*
X498975Y1158378D01*
X498919Y1158420D01*
X498848Y1158463D01*
X498764Y1158519D01*
X498651Y1158589D01*
X498411Y1158702D01*
X498397D01*
X498355Y1158730D01*
X498285Y1158745D01*
X498200Y1158773D01*
X498101Y1158801D01*
X497975Y1158815D01*
X497721Y1158843D01*
X497636D01*
X497537Y1158829D01*
X497425Y1158815D01*
X497284Y1158773D01*
X497129Y1158730D01*
X496959Y1158660D01*
X496804Y1158561D01*
X496790Y1158547D01*
X496734Y1158505D01*
X496663Y1158448D01*
X496565Y1158350D01*
X496466Y1158223D01*
X496353Y1158054D01*
X496241Y1157856D01*
X496128Y1157631D01*
X496114Y1157617D01*
X496100Y1157574D01*
X496057Y1157518D01*
X496015Y1157462D01*
X496001D01*
X495959Y1157433D01*
X495888Y1157419D01*
X495803Y1157405D01*
X495775D01*
X495719Y1157419D01*
X495634Y1157448D01*
X495550Y1157490D01*
X495536Y1157504D01*
X495493Y1157560D01*
X495451Y1157645D01*
X495437Y1157744D01*
X495465Y1157870D01*
Y1157885D01*
X495479Y1157913D01*
X495493Y1157955D01*
X495522Y1158011D01*
X495592Y1158167D01*
X495691Y1158350D01*
X495818Y1158561D01*
X495987Y1158787D01*
X496170Y1158984D01*
X496396Y1159167D01*
X496424Y1159182D01*
X496494Y1159224D01*
X496607Y1159294D01*
X496762Y1159365D01*
X496959Y1159435D01*
X497171Y1159506D01*
X497425Y1159548D01*
X497692Y1159562D01*
X497791D01*
X497862Y1159548D01*
D02*
G37*
G36*
X493633D02*
X493703Y1159520D01*
X493788Y1159449D01*
X493802Y1159435D01*
X493858Y1159379D01*
X493900Y1159294D01*
X493914Y1159210D01*
Y1159196D01*
X493900Y1159139D01*
X493872Y1159055D01*
X493816Y1158970D01*
X493802Y1158956D01*
X493745Y1158914D01*
X493661Y1158871D01*
X493548Y1158857D01*
X491687D01*
X491574Y1158843D01*
X491433Y1158801D01*
X491278Y1158759D01*
X491109Y1158688D01*
X490940Y1158589D01*
X490771Y1158448D01*
X490757Y1158434D01*
X490714Y1158378D01*
X490644Y1158293D01*
X490574Y1158167D01*
X490489Y1158026D01*
X490433Y1157842D01*
X490376Y1157645D01*
X490362Y1157433D01*
Y1151752D01*
Y1151724D01*
Y1151654D01*
X490390Y1151541D01*
X490419Y1151414D01*
X490461Y1151259D01*
X490531Y1151090D01*
X490630Y1150921D01*
X490771Y1150751D01*
X490785Y1150737D01*
X490841Y1150695D01*
X490940Y1150625D01*
X491053Y1150554D01*
X491208Y1150470D01*
X491377Y1150413D01*
X491574Y1150357D01*
X491786Y1150343D01*
X493576D01*
X493633Y1150329D01*
X493703Y1150300D01*
X493788Y1150230D01*
X493802Y1150216D01*
X493858Y1150159D01*
X493900Y1150075D01*
X493914Y1149990D01*
Y1149976D01*
X493900Y1149920D01*
X493872Y1149835D01*
X493816Y1149751D01*
X493802Y1149736D01*
X493745Y1149694D01*
X493661Y1149652D01*
X493548Y1149638D01*
X491701D01*
X491645Y1149652D01*
X491490Y1149666D01*
X491292Y1149722D01*
X491053Y1149793D01*
X490813Y1149906D01*
X490559Y1150061D01*
X490433Y1150145D01*
X490306Y1150258D01*
Y1150272D01*
X490277Y1150286D01*
X490207Y1150371D01*
X490094Y1150498D01*
X489981Y1150681D01*
X489869Y1150892D01*
X489756Y1151146D01*
X489685Y1151442D01*
X489671Y1151597D01*
X489657Y1151752D01*
Y1157433D01*
Y1157448D01*
Y1157476D01*
Y1157518D01*
X489671Y1157574D01*
X489685Y1157729D01*
X489728Y1157941D01*
X489812Y1158167D01*
X489911Y1158420D01*
X490066Y1158674D01*
X490151Y1158787D01*
X490263Y1158914D01*
X490277Y1158928D01*
X490292Y1158942D01*
X490376Y1159012D01*
X490503Y1159125D01*
X490686Y1159238D01*
X490912Y1159351D01*
X491166Y1159463D01*
X491462Y1159534D01*
X491617Y1159562D01*
X493576D01*
X493633Y1159548D01*
D02*
G37*
G36*
X603975Y1099948D02*
X604060Y1099920D01*
X604145Y1099864D01*
X604159Y1099849D01*
X604201Y1099793D01*
X604243Y1099708D01*
X604257Y1099610D01*
Y1090376D01*
Y1090348D01*
X604243Y1090277D01*
X604215Y1090193D01*
X604159Y1090108D01*
X604145Y1090094D01*
X604088Y1090080D01*
X604003Y1090052D01*
X603905Y1090038D01*
X603891D01*
X603848Y1090052D01*
X603764Y1090066D01*
X603651Y1090108D01*
X603637Y1090122D01*
X603609Y1090179D01*
X603567Y1090263D01*
X603552Y1090376D01*
Y1098750D01*
X602016Y1097227D01*
X602002Y1097213D01*
X601945Y1097171D01*
X601875Y1097129D01*
X601776Y1097114D01*
X601748D01*
X601692Y1097129D01*
X601607Y1097157D01*
X601522Y1097227D01*
X601508Y1097241D01*
X601480Y1097298D01*
X601438Y1097382D01*
X601424Y1097481D01*
Y1097495D01*
X601438Y1097538D01*
X601466Y1097608D01*
X601522Y1097721D01*
X603651Y1099864D01*
X603665Y1099878D01*
X603722Y1099920D01*
X603792Y1099948D01*
X603891Y1099962D01*
X603919D01*
X603975Y1099948D01*
D02*
G37*
G36*
X599718D02*
X599789Y1099920D01*
X599873Y1099849D01*
X599887Y1099835D01*
X599944Y1099779D01*
X599986Y1099694D01*
X600000Y1099610D01*
Y1099596D01*
X599986Y1099539D01*
X599958Y1099455D01*
X599901Y1099370D01*
X599887Y1099356D01*
X599831Y1099314D01*
X599746Y1099271D01*
X599633Y1099257D01*
X597773D01*
X597660Y1099243D01*
X597519Y1099201D01*
X597364Y1099159D01*
X597195Y1099088D01*
X597025Y1098989D01*
X596856Y1098848D01*
X596842Y1098834D01*
X596800Y1098778D01*
X596730Y1098693D01*
X596659Y1098567D01*
X596574Y1098426D01*
X596518Y1098242D01*
X596462Y1098045D01*
X596447Y1097833D01*
Y1092152D01*
Y1092124D01*
Y1092054D01*
X596476Y1091941D01*
X596504Y1091814D01*
X596546Y1091659D01*
X596617Y1091490D01*
X596715Y1091321D01*
X596856Y1091152D01*
X596870Y1091137D01*
X596927Y1091095D01*
X597025Y1091025D01*
X597138Y1090954D01*
X597293Y1090870D01*
X597463Y1090813D01*
X597660Y1090757D01*
X597871Y1090743D01*
X599662D01*
X599718Y1090729D01*
X599789Y1090700D01*
X599873Y1090630D01*
X599887Y1090616D01*
X599944Y1090559D01*
X599986Y1090475D01*
X600000Y1090390D01*
Y1090376D01*
X599986Y1090320D01*
X599958Y1090235D01*
X599901Y1090151D01*
X599887Y1090136D01*
X599831Y1090094D01*
X599746Y1090052D01*
X599633Y1090038D01*
X597787D01*
X597730Y1090052D01*
X597575Y1090066D01*
X597378Y1090122D01*
X597138Y1090193D01*
X596899Y1090306D01*
X596645Y1090461D01*
X596518Y1090545D01*
X596391Y1090658D01*
Y1090672D01*
X596363Y1090686D01*
X596292Y1090771D01*
X596180Y1090898D01*
X596067Y1091081D01*
X595954Y1091292D01*
X595841Y1091546D01*
X595771Y1091842D01*
X595757Y1091997D01*
X595743Y1092152D01*
Y1097833D01*
Y1097848D01*
Y1097876D01*
Y1097918D01*
X595757Y1097974D01*
X595771Y1098130D01*
X595813Y1098341D01*
X595898Y1098567D01*
X595996Y1098820D01*
X596152Y1099074D01*
X596236Y1099187D01*
X596349Y1099314D01*
X596363Y1099328D01*
X596377Y1099342D01*
X596462Y1099412D01*
X596589Y1099525D01*
X596772Y1099638D01*
X596997Y1099751D01*
X597251Y1099864D01*
X597547Y1099934D01*
X597702Y1099962D01*
X599662D01*
X599718Y1099948D01*
D02*
G37*
%LPC*%
G36*
X444849Y946414D02*
X443382D01*
X443326Y946400D01*
X443256Y946386D01*
X443171Y946358D01*
X443086Y946330D01*
X443002Y946273D01*
X442917Y946203D01*
X442903Y946189D01*
X442889Y946160D01*
X442861Y946118D01*
X442819Y946062D01*
X442748Y945907D01*
X442734Y945808D01*
X442720Y945695D01*
Y943919D01*
X445568D01*
Y945695D01*
Y945709D01*
Y945752D01*
X445553Y945794D01*
X445539Y945864D01*
X445511Y945949D01*
X445483Y946033D01*
X445426Y946118D01*
X445356Y946203D01*
X445342Y946217D01*
X445314Y946231D01*
X445271Y946273D01*
X445215Y946316D01*
X445060Y946386D01*
X444961Y946400D01*
X444849Y946414D01*
D02*
G37*
G36*
X434868D02*
X432683D01*
X432626Y946400D01*
X432556Y946386D01*
X432471Y946358D01*
X432387Y946330D01*
X432302Y946273D01*
X432218Y946203D01*
X432204Y946189D01*
X432189Y946160D01*
X432161Y946118D01*
X432119Y946062D01*
X432048Y945907D01*
X432034Y945808D01*
X432020Y945695D01*
Y941438D01*
Y941424D01*
Y941396D01*
X432034Y941339D01*
X432048Y941269D01*
X432105Y941100D01*
X432147Y941015D01*
X432218Y940930D01*
X432232Y940916D01*
X432260Y940902D01*
X432302Y940874D01*
X432359Y940832D01*
X432528Y940761D01*
X432612Y940747D01*
X432725Y940733D01*
X434205D01*
X434248Y940747D01*
X434318Y940761D01*
X434487Y940818D01*
X434572Y940860D01*
X434656Y940930D01*
X434670Y940945D01*
X434685Y940973D01*
X434727Y941015D01*
X434769Y941071D01*
X434840Y941240D01*
X434854Y941325D01*
X434868Y941438D01*
Y946414D01*
D02*
G37*
G36*
X791064Y1054257D02*
X788936D01*
Y1045743D01*
X791163D01*
X791276Y1045771D01*
X791403Y1045799D01*
X791558Y1045841D01*
X791727Y1045912D01*
X791896Y1046011D01*
X792065Y1046137D01*
X792079Y1046152D01*
X792136Y1046208D01*
X792206Y1046292D01*
X792291Y1046419D01*
X792361Y1046560D01*
X792432Y1046744D01*
X792488Y1046941D01*
X792502Y1047152D01*
Y1052833D01*
Y1052862D01*
Y1052932D01*
X792474Y1053045D01*
X792446Y1053172D01*
X792404Y1053327D01*
X792319Y1053496D01*
X792220Y1053665D01*
X792079Y1053834D01*
X792065Y1053848D01*
X792009Y1053905D01*
X791910Y1053975D01*
X791797Y1054046D01*
X791642Y1054130D01*
X791473Y1054187D01*
X791276Y1054243D01*
X791064Y1054257D01*
D02*
G37*
G36*
X517430Y1157045D02*
X515302D01*
Y1148531D01*
X517529D01*
X517642Y1148559D01*
X517769Y1148587D01*
X517924Y1148630D01*
X518093Y1148700D01*
X518262Y1148799D01*
X518431Y1148926D01*
X518445Y1148940D01*
X518502Y1148996D01*
X518572Y1149081D01*
X518657Y1149208D01*
X518727Y1149349D01*
X518798Y1149532D01*
X518854Y1149729D01*
X518868Y1149941D01*
Y1155622D01*
Y1155650D01*
Y1155720D01*
X518840Y1155833D01*
X518812Y1155960D01*
X518770Y1156115D01*
X518685Y1156284D01*
X518586Y1156453D01*
X518445Y1156622D01*
X518431Y1156637D01*
X518375Y1156693D01*
X518276Y1156764D01*
X518163Y1156834D01*
X518008Y1156919D01*
X517839Y1156975D01*
X517642Y1157031D01*
X517430Y1157045D01*
D02*
G37*
G36*
X635850Y1187271D02*
X633722D01*
Y1178757D01*
X635949D01*
X636062Y1178785D01*
X636189Y1178813D01*
X636344Y1178856D01*
X636513Y1178926D01*
X636682Y1179025D01*
X636851Y1179152D01*
X636865Y1179166D01*
X636922Y1179222D01*
X636992Y1179307D01*
X637077Y1179434D01*
X637147Y1179575D01*
X637218Y1179758D01*
X637274Y1179955D01*
X637288Y1180167D01*
Y1185848D01*
Y1185876D01*
Y1185946D01*
X637260Y1186059D01*
X637232Y1186186D01*
X637190Y1186341D01*
X637105Y1186510D01*
X637006Y1186679D01*
X636865Y1186849D01*
X636851Y1186863D01*
X636795Y1186919D01*
X636696Y1186990D01*
X636583Y1187060D01*
X636428Y1187145D01*
X636259Y1187201D01*
X636062Y1187257D01*
X635850Y1187271D01*
D02*
G37*
G36*
X758217Y1134257D02*
X756088D01*
Y1130000D01*
X758315D01*
X758428Y1130028D01*
X758555Y1130056D01*
X758710Y1130099D01*
X758879Y1130169D01*
X759048Y1130268D01*
X759218Y1130395D01*
X759232Y1130409D01*
X759288Y1130465D01*
X759359Y1130550D01*
X759443Y1130677D01*
X759514Y1130818D01*
X759584Y1131001D01*
X759641Y1131198D01*
X759655Y1131410D01*
Y1132833D01*
Y1132862D01*
Y1132932D01*
X759626Y1133045D01*
X759598Y1133172D01*
X759556Y1133327D01*
X759471Y1133496D01*
X759373Y1133665D01*
X759232Y1133834D01*
X759218Y1133848D01*
X759161Y1133905D01*
X759063Y1133975D01*
X758950Y1134046D01*
X758795Y1134130D01*
X758626Y1134187D01*
X758428Y1134243D01*
X758217Y1134257D01*
D02*
G37*
G36*
X611410Y1074257D02*
X609281D01*
Y1065743D01*
X611508D01*
X611621Y1065771D01*
X611748Y1065799D01*
X611903Y1065841D01*
X612072Y1065912D01*
X612241Y1066011D01*
X612411Y1066137D01*
X612425Y1066152D01*
X612481Y1066208D01*
X612552Y1066292D01*
X612636Y1066419D01*
X612707Y1066560D01*
X612777Y1066744D01*
X612834Y1066941D01*
X612848Y1067152D01*
Y1072833D01*
Y1072862D01*
Y1072932D01*
X612819Y1073045D01*
X612791Y1073172D01*
X612749Y1073327D01*
X612664Y1073496D01*
X612566Y1073665D01*
X612425Y1073834D01*
X612411Y1073848D01*
X612354Y1073905D01*
X612256Y1073975D01*
X612143Y1074046D01*
X611988Y1074130D01*
X611819Y1074187D01*
X611621Y1074243D01*
X611410Y1074257D01*
D02*
G37*
G36*
X605024D02*
X602895D01*
Y1065743D01*
X605122D01*
X605235Y1065771D01*
X605362Y1065799D01*
X605517Y1065841D01*
X605686Y1065912D01*
X605855Y1066011D01*
X606025Y1066137D01*
X606039Y1066152D01*
X606095Y1066208D01*
X606166Y1066292D01*
X606250Y1066419D01*
X606321Y1066560D01*
X606391Y1066744D01*
X606448Y1066941D01*
X606462Y1067152D01*
Y1072833D01*
Y1072862D01*
Y1072932D01*
X606433Y1073045D01*
X606405Y1073172D01*
X606363Y1073327D01*
X606278Y1073496D01*
X606180Y1073665D01*
X606039Y1073834D01*
X606025Y1073848D01*
X605968Y1073905D01*
X605870Y1073975D01*
X605757Y1074046D01*
X605602Y1074130D01*
X605433Y1074187D01*
X605235Y1074243D01*
X605024Y1074257D01*
D02*
G37*
%LPD*%
D28*
X505000Y1117300D02*
G03*
X505000Y1117300I-30000J0D01*
G01*
X797300Y1082300D02*
X822700D01*
X797300D02*
Y1133100D01*
X822700D01*
Y1082300D02*
Y1133100D01*
X407370Y1087012D02*
X432770D01*
X407370D02*
Y1137812D01*
X432770D01*
Y1087012D02*
Y1137812D01*
X607000Y970249D02*
X713000D01*
X607000Y909000D02*
X713000D01*
X607000Y1060249D02*
X713000D01*
Y909000D02*
Y1060249D01*
X607000Y909000D02*
Y1060249D01*
X685000D02*
Y1090000D01*
X660000Y1060249D02*
Y1090000D01*
X635000Y1060249D02*
Y1090000D01*
X662800Y1150000D02*
X665800D01*
X653800D02*
X655800D01*
X662800Y1146000D02*
Y1155000D01*
X655800Y1150000D02*
X662800Y1155000D01*
X655800Y1150000D02*
X662800Y1146000D01*
X655800Y1145000D02*
Y1155000D01*
X626800Y1129000D02*
X689800D01*
Y1135250D01*
X626800Y1129000D02*
Y1145000D01*
X689800Y1164750D02*
Y1172000D01*
X626800Y1145000D02*
X628300D01*
Y1129000D02*
Y1145000D01*
X626800Y1155000D02*
X628300D01*
X626800D02*
Y1172000D01*
X627300D02*
X689800D01*
X628300Y1155000D02*
Y1172000D01*
X626800D02*
X628300D01*
X530122Y1102749D02*
Y1105749D01*
Y1112749D02*
Y1114749D01*
X526122Y1105749D02*
X535122D01*
X530122Y1112749D02*
X535122Y1105749D01*
X526122D02*
X530122Y1112749D01*
X525122D02*
X535122D01*
X509122Y1078749D02*
Y1141749D01*
Y1078749D02*
X515372D01*
X509122Y1141749D02*
X525122D01*
X544872Y1078749D02*
X552122D01*
X525122Y1140249D02*
Y1141749D01*
X509122Y1140249D02*
X525122D01*
X535122D02*
Y1141749D01*
X552122D01*
Y1078749D02*
Y1141249D01*
X535122Y1140249D02*
X552122D01*
Y1141749D01*
D29*
X675971Y938000D02*
G03*
X675971Y938000I-16971J0D01*
G01*
X449950Y1140350D02*
Y1153050D01*
X443600Y1146700D02*
X456300D01*
D30*
X573000Y1110000D02*
X587000D01*
X573000Y1096000D02*
X576000D01*
X573000D02*
Y1124000D01*
X576000D01*
X584000D02*
X587000D01*
Y1096000D02*
Y1124000D01*
X584000Y1096000D02*
X587000D01*
X775080Y1088750D02*
X777000D01*
Y1120750D01*
X775080D02*
X777000D01*
X763000D02*
X764920D01*
X763000Y1088750D02*
Y1120750D01*
Y1088750D02*
X764920D01*
X763000Y1104750D02*
X777000D01*
X773500Y1060000D02*
X777000D01*
X763000D02*
X766500D01*
X763000Y1075240D02*
X764920D01*
X763000Y1045000D02*
Y1075240D01*
Y1046030D02*
X767460D01*
X772540D02*
X777000D01*
Y1045000D02*
Y1075240D01*
X775080D02*
X777000D01*
X763000Y1044760D02*
Y1046030D01*
Y1044760D02*
X767460D01*
Y1046030D01*
X777000Y1044760D02*
Y1046030D01*
X772540Y1044760D02*
X777000D01*
X772540D02*
Y1046030D01*
X734000Y1092750D02*
X737000D01*
Y1120750D01*
X734000D02*
X737000D01*
X723000D02*
X726000D01*
X723000Y1092750D02*
Y1120750D01*
Y1092750D02*
X726000D01*
X723000Y1106750D02*
X737000D01*
D31*
X767500Y1061750D02*
X770000Y1058250D01*
X767500Y1061750D02*
X770000D01*
X767750Y1058250D02*
X770000D01*
X772250D01*
X770000Y1061750D02*
X772500D01*
X770000Y1058250D02*
X772500Y1061750D01*
%TF.MD5,e2cf21f410458e6d1a4427e0b94da7b4*%
M02*
