%TF.GenerationSoftware,Altium Limited,Altium Designer,20.0.13 (296)*%
G04 Layer_Color=16711935*
%FSLAX44Y44*%
%MOMM*%
%TF.FileFunction,Other,Mechanical_13*%
%TF.Part,Single*%
G01*
G75*
%TA.AperFunction,NonConductor*%
%ADD31C,0.1000*%
%ADD37R,0.6147X3.9400*%
%ADD38R,3.9400X0.6147*%
D31*
X584750Y1101250D02*
Y1118750D01*
X575250Y1101250D02*
Y1118750D01*
X584750D01*
X575250Y1101250D02*
X584750D01*
X774750Y1096000D02*
Y1113500D01*
X765250Y1096000D02*
Y1113500D01*
X774750D01*
X765250Y1096000D02*
X774750D01*
X765250Y1051250D02*
Y1068750D01*
X774750Y1051250D02*
Y1068750D01*
X765250Y1051250D02*
X774750D01*
X765250Y1068750D02*
X774750D01*
X682650Y1130300D02*
Y1169700D01*
X636950Y1130300D02*
Y1169700D01*
Y1130300D02*
X682650D01*
X636950Y1169700D02*
X682650D01*
X510422Y1085899D02*
X549822D01*
X510422Y1131599D02*
X549822D01*
X510422Y1085899D02*
Y1131599D01*
X549822Y1085899D02*
Y1131599D01*
X725250Y1098000D02*
X734750D01*
X725250Y1115500D02*
X734750D01*
X725250Y1098000D02*
Y1115500D01*
X734750Y1098000D02*
Y1115500D01*
D37*
X640023Y1150000D02*
D03*
D38*
X530122Y1128526D02*
D03*
%TF.MD5,2e4b28db7e37df5fd33741e4c632b956*%
M02*
